<svg width="228" height="65" viewBox="0 0 228 65" fill="none" xmlns="http://www.w3.org/2000/svg">
<path d="M14.0003 47.9736C14.2355 47.8708 14.2606 47.6547 14.2803 47.4409C14.4725 45.3448 15.091 43.3604 15.8557 41.4142C15.9023 41.2956 15.9397 41.168 16.0121 41.0665C16.0686 40.9872 16.1728 40.9418 16.2558 40.8813L16.2559 40.8785C16.1799 41.0522 16.0853 41.2202 16.0308 41.4003C15.6148 42.7749 15.3024 44.1727 15.1648 45.6038C15.07 46.5894 15.1177 47.5674 15.3623 48.5356C15.7941 50.2446 16.8681 51.3277 18.5318 51.8483C19.4415 52.1329 20.3805 52.1778 21.3253 52.1623C23.6173 52.1244 25.8125 51.5668 27.983 50.8985C31.2818 49.8828 34.4505 48.536 37.5652 47.0598C42.0364 44.9407 46.3714 42.5655 50.6486 40.0823C56.0746 36.9324 61.3889 33.6024 66.6357 30.1638C66.7963 30.0585 66.9623 29.9613 67.1293 29.8664C67.1628 29.8474 67.2118 29.8558 67.2771 29.8492C67.31 29.9159 67.3719 29.9873 67.3795 30.0642C67.5019 31.2952 67.753 32.5126 67.8182 33.763C67.6397 33.8884 67.4877 34.004 67.3276 34.1067C60.3535 38.5802 53.2876 42.9008 45.9991 46.8477C42.3295 48.835 38.6074 50.7168 34.767 52.3572C32.4053 53.3662 30.0083 54.2755 27.5265 54.9488C26.4107 55.2516 25.2804 55.5053 24.132 55.6114C23.0256 55.7134 21.9109 55.7102 20.7998 55.5641C20.0976 55.4718 19.4052 55.348 18.7345 55.1257C18.3501 54.9984 17.97 54.8477 17.6063 54.6699C15.8502 53.8111 14.8113 52.3958 14.4166 50.4946C14.3558 50.202 14.3187 49.9042 14.2769 49.608C14.2488 49.4092 14.1923 49.2314 14 49.1297C14.0003 48.7446 14.0003 48.3591 14.0003 47.9736Z" fill="#00579A"/>
<path d="M214.85 45.1465C214.144 45.1376 213.439 45.1297 212.733 45.1189C212.501 45.1155 212.269 45.1047 212.011 45.0966C211.981 44.9393 211.943 44.8191 211.939 44.698C211.928 44.3987 211.934 44.0988 211.934 43.7991C211.934 40.6742 211.932 37.5492 211.934 34.4243C211.934 33.4139 211.825 32.4178 211.554 31.4432C211.48 31.1762 211.387 30.9128 211.279 30.6575C210.729 29.3528 209.749 28.5565 208.36 28.3204C207.558 28.1842 206.743 28.1888 205.936 28.3673C205.038 28.566 204.245 28.9686 203.556 29.5677C202.266 30.6895 201.463 32.0905 201.189 33.7866C201.029 34.782 200.974 35.7857 200.971 36.7915C200.964 39.2743 200.969 41.7571 200.968 44.24C200.967 44.494 200.953 44.7482 200.944 45.0097C200.455 45.2032 199.982 45.1002 199.522 45.1155C199.075 45.1303 198.627 45.111 198.157 45.1065C198.12 44.9547 198.078 44.8367 198.066 44.7156C198.051 44.5673 198.06 44.4164 198.06 44.2665C198.06 38.4662 198.06 32.6657 198.062 26.8653C198.062 26.6137 198.024 26.3549 198.12 26.1123C198.197 26.0814 198.254 26.0386 198.312 26.038C199.061 26.0295 199.81 26.025 200.559 26.0254C200.661 26.0254 200.763 26.0577 200.899 26.0805C200.923 26.2622 200.962 26.426 200.965 26.5903C200.974 27.1038 200.964 27.6177 200.976 28.1312C200.98 28.2683 201.038 28.4041 201.071 28.5395C201.356 28.501 201.467 28.2983 201.615 28.1532C202.089 27.6865 202.592 27.2569 203.148 26.8894C204.522 25.9801 206.026 25.5121 207.681 25.5143C208.437 25.5152 209.176 25.6007 209.897 25.8162C211.417 26.2712 212.582 27.1953 213.425 28.5356C214.085 29.5855 214.441 30.745 214.657 31.9531C214.698 32.1824 214.678 32.4227 214.687 32.6579C214.695 32.8511 214.7 33.0457 214.851 33.1958C214.85 37.1791 214.85 41.1628 214.85 45.1465Z" fill="#00579A"/>
<path d="M47.6168 38.6986C47.5705 38.531 47.5266 38.4343 47.5202 38.3354C47.5062 38.1219 47.5093 37.9074 47.5093 37.6932C47.5088 34.652 47.5103 31.6107 47.5068 28.5695C47.5064 28.2739 47.5524 27.9687 47.392 27.6679C47.2761 27.6515 47.1514 27.6185 47.0266 27.6184C45.4654 27.6154 43.9041 27.6173 42.3858 27.6178C42.1618 27.8368 42.2183 28.0624 42.2175 28.2686C42.2122 29.575 42.216 30.8815 42.2132 32.1879C42.2128 32.398 42.2471 32.6152 42.1337 32.838C42.0582 32.8581 41.979 32.8973 41.8999 32.8975C40.3795 32.8998 38.8592 32.8977 37.3388 32.8945C37.2979 32.8944 37.2572 32.8728 37.2061 32.8584C36.9967 32.6832 37.0641 32.4328 37.0632 32.2072C37.0575 30.9436 37.0617 29.68 37.0592 28.4164C37.0588 28.1848 37.0431 27.9533 37.0336 27.6963C36.8784 27.6654 36.7581 27.6209 36.6374 27.6205C35.1597 27.6158 33.682 27.6168 32.2043 27.6196C32.1017 27.6199 31.9992 27.6476 31.8662 27.6669C31.8433 27.8074 31.8118 27.9285 31.8061 28.0507C31.796 28.2644 31.8007 28.4789 31.8007 28.6931C31.8006 34.3686 31.8013 40.0442 31.7999 45.7198C31.7998 46.5806 31.8786 46.5061 31.0442 46.8101C30.06 47.1687 29.0715 47.5151 28.0844 47.8652C27.9233 47.9224 27.7614 47.9786 27.5968 48.024C27.3264 48.0986 27.2001 48.0134 27.1577 47.7257C27.1077 47.3872 27.067 47.0472 27.0224 46.7079C26.8134 45.1175 26.6013 43.5276 26.3964 41.9366C26.2079 40.4728 26.0313 39.0075 25.8417 37.5439C25.696 36.4197 25.5341 35.2976 25.3866 34.1737C25.2362 33.0286 25.0968 31.882 24.9485 30.7366C24.844 29.9305 24.7307 29.1257 24.6247 28.3199C24.5186 27.5141 24.4179 26.7076 24.3123 25.9017C24.1594 24.7353 24.0034 23.5693 23.8502 22.403C23.7471 21.6184 23.6447 20.8336 23.5453 20.0485C23.489 19.6029 23.4371 19.1568 23.3883 18.7102C23.377 18.6079 23.3867 18.5032 23.3867 18.3574C24.4943 18.1382 25.5991 18.0464 26.6956 17.8999C27.7962 17.7527 28.897 17.6062 29.9784 17.462C30.1147 17.5563 30.0777 17.6619 30.0458 17.763C29.905 18.21 29.7621 18.6563 29.6282 19.0764C29.4524 19.164 29.3172 19.2267 29.1862 19.2974C28.8591 19.4739 28.6698 19.7478 28.6613 20.121C28.6534 20.4701 28.843 20.7192 29.2558 20.9518C29.4799 20.8553 29.5094 20.6253 29.589 20.435C30.1421 19.1125 30.6911 17.7882 31.2393 16.4635C31.8366 15.0204 32.43 13.5756 33.0283 12.133C33.3995 11.2379 33.8749 10.4034 34.5008 9.65975C34.9752 9.09603 35.5269 8.62819 36.2026 8.31969C37.0157 7.94852 37.8564 7.92027 38.7114 8.13357C39.3643 8.29652 39.9561 8.60449 40.4875 9.00525C41.0162 9.40387 41.5291 9.8298 42.0076 10.2871C43.017 11.2518 43.8718 12.3512 44.6913 13.4789C45.8004 15.005 46.7585 16.6284 47.768 18.2187C47.9024 18.4305 47.9931 18.6848 48.2604 18.8119C48.6916 18.5664 48.8953 18.1987 48.8633 17.7041C48.8375 17.3032 48.5778 17.0226 48.1848 16.972C48.0168 16.9503 47.8457 16.9535 47.6518 16.9441C47.299 16.4436 46.9823 15.9233 46.7378 15.3534C47.1347 15.2215 51.8538 14.5416 52.6524 14.4995C52.7094 14.4966 52.7689 14.5382 52.8195 14.5564C53.0057 15.1603 55.2509 32.7035 55.4064 34.1217C55.3079 34.2 55.2027 34.306 55.0782 34.3792C52.7351 35.7572 50.3902 37.1316 48.0441 38.5045C47.9347 38.5686 47.8126 38.6105 47.6168 38.6986ZM31.3548 18.0311C31.4978 17.9446 31.5785 17.9162 31.6299 17.8606C31.7456 17.7353 31.8527 17.6009 31.9523 17.4622C32.0838 17.279 32.2419 17.1669 32.4787 17.1464C32.8398 17.1151 33.1984 17.0552 33.5579 17.0062C34.6998 16.8504 35.8408 16.6882 36.9837 16.5391C38.1266 16.3899 39.2716 16.2569 40.415 16.1105C41.664 15.9504 42.9124 15.7856 44.1604 15.6172C44.4746 15.5747 44.7861 15.5105 45.0734 15.4606C45.2002 15.2323 45.0575 15.098 44.9709 14.9628C44.0857 13.5803 43.0031 12.3806 41.6638 11.4217C41.0171 10.9587 40.325 10.5804 39.5638 10.3417C38.6219 10.0464 37.6694 10.0262 36.7234 10.3074C35.9971 10.5233 35.3568 10.9079 34.7851 11.4051C34.0824 12.0161 33.5267 12.7401 33.107 13.5713C32.4606 14.8519 31.9562 16.1913 31.4589 17.5337C31.4101 17.6654 31.3996 17.8114 31.3548 18.0311ZM35.0321 10.357C35.3809 10.1802 35.6221 10.0447 35.8742 9.93397C36.1475 9.814 36.4255 9.69831 36.7115 9.61569C36.9764 9.53924 37.2529 9.48876 37.5277 9.46372C37.8248 9.43667 38.1268 9.43614 38.4248 9.45448C38.7 9.47148 38.9717 9.53937 39.2467 9.56562C39.528 9.5924 39.7784 9.80462 40.1776 9.7188C39.831 9.3408 39.4738 9.12469 39.0817 8.96254C38.5641 8.74843 38.0259 8.59766 37.4616 8.66073C36.8533 8.72875 36.3174 8.98905 35.8358 9.36637C35.358 9.74102 35.2102 9.90558 35.0321 10.357Z" fill="#00579A"/>
<path d="M146.908 28.5932C147.149 28.2074 146.99 27.7751 147.026 27.3697C147.064 26.9501 146.983 26.5211 147.082 26.1191C147.597 25.9942 149.158 25.9783 149.816 26.0857C149.844 26.1735 149.893 26.2708 149.902 26.3718C149.918 26.5417 149.91 26.7139 149.91 26.885C149.911 32.6863 149.911 38.4876 149.908 44.2889C149.908 44.5401 149.959 44.8023 149.831 45.031C149.34 45.1436 147.741 45.1544 147.106 45.0469C147.083 44.9193 147.038 44.7783 147.035 44.6367C147.025 44.123 147.034 43.6091 147.025 43.0955C147.023 42.9565 146.98 42.8182 146.948 42.6317C146.825 42.6841 146.741 42.6999 146.684 42.748C146.504 42.8995 146.337 43.0672 146.159 43.2211C144.645 44.5301 142.91 45.3229 140.903 45.522C137.442 45.865 134.604 44.6733 132.353 42.0653C131.212 40.7441 130.503 39.1969 130.186 37.4767C129.64 34.519 130.245 31.8165 132.051 29.4122C133.537 27.4339 135.516 26.1589 137.946 25.704C141.157 25.1028 144.015 25.8532 146.383 28.1897C146.505 28.3098 146.627 28.4297 146.754 28.544C146.782 28.5691 146.832 28.5699 146.908 28.5932ZM140.033 28.3862C138.57 28.3471 137.231 28.793 136.016 29.6285C133.689 31.2295 132.651 34.1781 133.069 36.7789C133.679 40.5632 137.262 43.5716 141.378 42.7429C143.961 42.223 145.804 40.7681 146.744 38.2761C147.222 37.0107 147.285 35.6957 147.077 34.3552C146.519 30.7585 143.461 28.2886 140.033 28.3862Z" fill="#00579A"/>
<path d="M190.275 42.6511C189.95 42.6981 189.835 42.8986 189.681 43.0378C188.619 43.998 187.426 44.7314 186.051 45.154C184.958 45.4898 183.838 45.6667 182.699 45.599C178.087 45.3255 175.129 42.2943 173.964 39.1605C172.274 34.6121 173.892 29.4705 178.148 26.904C179.664 25.9894 181.31 25.528 183.088 25.5162C185.706 25.4987 187.935 26.406 189.775 28.2701C189.893 28.389 190.022 28.4963 190.124 28.5891C190.308 28.5647 190.325 28.4564 190.326 28.349C190.33 27.8138 190.328 27.2785 190.334 26.7432C190.336 26.534 190.354 26.325 190.364 26.1314C190.853 25.9956 192.322 25.97 193.111 26.0773C193.14 26.1805 193.187 26.2961 193.2 26.4155C193.217 26.5636 193.207 26.7148 193.207 26.8647C193.207 32.6674 193.207 38.47 193.205 44.2726C193.204 44.5244 193.247 44.7841 193.147 45.0174C192.686 45.1406 191.229 45.166 190.413 45.0648C190.388 44.9381 190.34 44.7985 190.337 44.6579C190.328 44.1441 190.336 43.6301 190.33 43.1163C190.328 42.974 190.297 42.8318 190.275 42.6511ZM183.44 28.4031C183.162 28.4031 182.884 28.4015 182.605 28.404C182.52 28.4048 182.434 28.4103 182.35 28.4244C180.524 28.7303 178.984 29.5515 177.848 31.0278C176.388 32.9255 175.952 35.0616 176.511 37.3915C177.394 41.0691 181.151 43.8394 185.42 42.5724C187.647 41.9116 189.232 40.4911 190.049 38.2907C190.544 36.9571 190.604 35.5757 190.351 34.179C189.681 30.4724 186.517 28.3054 183.44 28.4031Z" fill="#00579A"/>
<path d="M112.404 28.5863C112.663 28.1779 112.516 27.743 112.547 27.3335C112.578 26.9325 112.513 26.5243 112.601 26.1419C113.055 25.9942 114.375 25.9624 115.272 26.0716C115.308 26.1715 115.37 26.284 115.386 26.4026C115.408 26.5713 115.4 26.7445 115.4 26.9157C115.4 32.698 115.401 38.4802 115.399 44.2625C115.399 44.5157 115.433 44.7757 115.322 45.0095C114.873 45.1462 113.589 45.1755 112.704 45.0736C112.541 44.9543 112.557 44.7745 112.555 44.6063C112.548 44.0924 112.556 43.5782 112.544 43.0646C112.541 42.9273 112.484 42.7913 112.451 42.653C112.169 42.6934 112.051 42.8905 111.898 43.0303C110.822 44.0109 109.608 44.7517 108.209 45.1712C107.135 45.4931 106.034 45.6717 104.916 45.5984C101.783 45.393 99.2672 44.0241 97.4166 41.4799C96.3893 40.0675 95.8154 38.4778 95.589 36.7416C94.9969 32.201 97.6786 27.428 102.514 25.9439C105.055 25.1641 107.546 25.3667 109.907 26.6623C110.625 27.0563 111.262 27.5595 111.848 28.1302C112.012 28.2901 112.148 28.4906 112.404 28.5863ZM105.638 28.3742C105.275 28.3916 104.905 28.3709 104.549 28.4324C102.025 28.8682 100.195 30.2331 99.1297 32.5739C98.49 33.9789 98.356 35.4507 98.629 36.9681C99.3318 40.8743 103.206 43.8342 107.521 42.6008C109.982 41.8973 111.65 40.3215 112.403 37.8496C112.777 36.621 112.822 35.3614 112.562 34.1018C111.743 30.1438 108.452 28.2965 105.638 28.3742Z" fill="#00579A"/>
<path d="M75.0717 18.9013C75.6305 18.8034 77.2441 18.8082 77.7953 18.9145C77.8213 19.0174 77.8687 19.1357 77.8778 19.257C77.8939 19.4701 77.8885 19.6848 77.8885 19.8988C77.8891 22.5105 77.888 25.1221 77.8903 27.7338C77.8905 28.0056 77.8563 28.2861 77.9825 28.5437C78.2581 28.5086 78.3712 28.3087 78.5176 28.1625C79.0343 27.6463 79.5866 27.1753 80.2039 26.783C81.4988 25.9599 82.9083 25.5281 84.4478 25.5168C85.179 25.5115 85.8975 25.571 86.6072 25.7569C88.2874 26.1971 89.5565 27.1745 90.4418 28.6607C91.0532 29.6871 91.3802 30.81 91.575 31.9796C91.7022 32.7431 91.7227 33.5118 91.7227 34.2826C91.7231 37.6435 91.7235 41.0043 91.7224 44.3653C91.7224 44.577 91.7092 44.7887 91.7018 45.0113C91.2191 45.2043 90.7463 45.0996 90.2858 45.1154C89.8386 45.1307 89.3903 45.1116 88.908 45.1073C88.8759 44.9376 88.8279 44.7976 88.8263 44.6571C88.8181 43.9508 88.8218 43.2443 88.8218 42.5379C88.8215 39.8406 88.8214 37.1434 88.8215 34.4461C88.8215 33.4143 88.7077 32.3965 88.4292 31.4015C88.3545 31.1347 88.261 30.8709 88.1511 30.6166C87.5997 29.342 86.6404 28.5453 85.2717 28.3216C84.1854 28.1439 83.098 28.1857 82.0526 28.6096C81.3692 28.8868 80.7624 29.2776 80.2304 29.7854C79.0082 30.952 78.3091 32.378 78.071 34.0503C77.9165 35.1361 77.9063 36.2268 77.8956 37.3164C77.8733 39.6067 77.8904 41.8974 77.8866 44.1879C77.8862 44.4624 77.9338 44.7453 77.7885 45.0356C77.3505 45.2045 76.8771 45.1059 76.4156 45.1136C75.9712 45.1209 75.5209 45.1719 75.0619 45.0605C75.0313 44.9536 74.9864 44.8545 74.9776 44.7523C74.9627 44.5822 74.9697 44.4102 74.9697 44.2389C74.9694 36.0615 74.969 27.884 74.9718 19.7065C74.9721 19.4341 74.912 19.1483 75.0717 18.9013Z" fill="#00579A"/>
<path d="M16.5802 26.0977C16.9063 26.0399 17.2178 25.9735 17.5326 25.9308C18.7812 25.7614 20.0305 25.597 21.2803 25.436C21.7462 25.376 22.2129 25.3183 22.681 25.283C22.9496 25.2626 23.0367 25.3463 23.0696 25.5972C23.2062 26.6349 23.3353 27.6736 23.472 28.7113C23.578 29.516 23.6943 30.3194 23.8003 31.1242C23.9063 31.9289 24.0045 32.7346 24.1079 33.5396C24.2086 34.3235 24.3107 35.1074 24.4134 35.8912C24.5244 36.7383 24.6364 37.5852 24.7486 38.432C24.8608 39.279 24.9758 40.1256 25.0861 40.9729C25.191 41.7778 25.2898 42.5833 25.394 43.3882C25.4981 44.1933 25.6039 44.9982 25.7124 45.8028C25.8123 46.5435 25.9222 47.2831 26.017 48.0245C26.0598 48.3593 25.9779 48.475 25.6184 48.5626C24.9133 48.7343 24.2084 48.9141 23.4949 49.043C22.4436 49.2329 21.3861 49.3826 20.3109 49.361C19.5463 49.3456 19.5291 49.3312 19.4367 48.5955C19.2903 47.4299 19.1231 46.2669 18.9687 45.1023C18.8676 44.34 18.7759 43.5765 18.6759 42.8141C18.5176 41.6068 18.3542 40.4003 18.1961 39.1929C18.0962 38.4305 18.0041 37.6669 17.9042 36.9044C17.7903 36.0361 17.6695 35.1687 17.5554 34.3004C17.4552 33.538 17.3622 32.7747 17.2626 32.0122C17.1463 31.1227 17.024 30.234 16.9088 29.3444C16.7772 28.3277 16.6501 27.3106 16.524 26.2932C16.5193 26.2548 16.5459 26.2126 16.5802 26.0977Z" fill="#00579A"/>
<path d="M68.4265 38.4426C68.252 38.5615 68.0806 38.6873 67.9006 38.7995C62.3795 42.2449 56.7917 45.5768 51.056 48.655C47.1712 50.7398 43.2327 52.7146 39.1561 54.4028C36.7242 55.4098 34.2551 56.3085 31.7133 56.9997C30.4541 57.3421 29.1795 57.6158 27.8902 57.8098C26.5737 58.008 25.2445 58.0467 23.9188 57.9473C22.8457 57.8669 21.808 57.611 20.8588 57.0736C20.7562 57.0155 20.6671 56.9338 20.4688 56.7866C20.6952 56.7866 20.7932 56.7742 20.8872 56.7884C22.0812 56.9692 23.2794 56.9494 24.4713 56.808C28.1798 56.3679 31.6672 55.1413 35.0989 53.7412C38.947 52.1712 42.6534 50.3027 46.3103 48.3343C51.8731 45.3401 57.2874 42.0929 62.6297 38.724C64.2412 37.7079 65.8387 36.6696 67.4434 35.6425C67.6037 35.5399 67.7682 35.4439 67.962 35.3258C68.2474 35.8338 68.1845 36.3815 68.2652 36.8922C68.3445 37.3933 68.466 37.8977 68.4265 38.4426Z" fill="#00579A"/>
<path d="M65.9735 19.6674C66.0738 20.3642 66.1667 20.9762 66.2489 21.5898C66.3682 22.4795 66.478 23.3706 66.5955 24.2608C66.6877 24.96 66.7789 25.6596 66.8831 26.3571C66.9371 26.718 66.8182 26.9596 66.5036 27.1579C65.4535 27.8202 64.423 28.5137 63.3739 29.1778C61.33 30.4717 59.2791 31.7544 57.2295 33.039C57.0529 33.1498 56.8928 33.3067 56.6197 33.2992C56.5715 33.1474 56.497 32.9935 56.4759 32.8327C56.3315 31.7306 56.2035 30.6265 56.0601 29.5242C55.9112 28.3796 55.7491 27.2367 55.5966 26.0925C55.495 25.3297 55.4009 24.5659 55.3015 23.8028C55.2298 23.2517 55.1507 22.7015 55.0834 22.15C55.0424 21.8144 54.9704 21.4763 55.0865 21.0971C55.2821 21.0457 55.4821 20.9709 55.6886 20.9429C56.4722 20.8364 57.2581 20.7473 58.0426 20.6475C58.8272 20.5479 59.6113 20.4444 60.3954 20.3409C61.2217 20.2319 62.0477 20.1204 62.8739 20.011C63.7425 19.8958 64.611 19.7793 65.4804 19.6698C65.6212 19.6521 65.7661 19.6674 65.9735 19.6674Z" fill="#00579A"/>
<path d="M162.422 45.0971C162.149 45.0971 161.938 45.0971 161.738 45.0971C161.508 44.9151 161.442 44.6578 161.336 44.4292C160.052 41.6535 158.772 38.8756 157.491 36.0981C156.049 32.9712 154.607 29.8441 153.166 26.7167C153.078 26.5265 152.999 26.3325 152.93 26.1725C152.964 26.1058 152.97 26.0841 152.984 26.0706C152.999 26.0563 153.02 26.0419 153.04 26.041C153.232 26.0318 153.424 26.0197 153.616 26.0191C154.385 26.0166 155.154 26.0181 155.879 26.0181C156.151 26.2472 156.221 26.5261 156.336 26.7746C157.97 30.3081 159.598 33.8438 161.228 37.3789C161.416 37.7867 161.602 38.1959 161.796 38.6006C161.848 38.7082 161.931 38.8008 161.995 38.8927C162.235 38.8336 162.264 38.6476 162.332 38.5012C162.913 37.2382 163.489 35.9731 164.066 34.7081C165.282 32.0421 166.497 29.3756 167.713 26.7098C167.81 26.4973 167.917 26.2893 168.009 26.1005C168.586 25.9866 170.536 25.9895 171.058 26.1031C171.078 26.347 170.935 26.5447 170.841 26.7508C170.107 28.367 169.365 29.9798 168.626 31.5941C166.668 35.8729 164.711 40.1522 162.752 44.4307C162.655 44.6429 162.545 44.8491 162.422 45.0971Z" fill="#00579A"/>
<path d="M122.292 45.0565C121.676 45.1512 119.962 45.1409 119.429 45.0351C119.403 44.9323 119.357 44.8138 119.347 44.6923C119.331 44.5008 119.337 44.3075 119.337 44.1148C119.337 38.4214 119.336 32.7281 119.338 27.0346C119.338 26.7382 119.361 26.4419 119.374 26.1266C119.528 26.0859 119.647 26.0284 119.766 26.0271C120.515 26.0188 121.264 26.0217 122.013 26.025C122.096 26.0254 122.18 26.0508 122.3 26.0707C122.329 26.2097 122.379 26.3493 122.385 26.4905C122.398 26.8111 122.385 27.1326 122.393 27.4535C122.396 27.5736 122.427 27.6931 122.442 27.797C122.61 27.8508 122.677 27.7561 122.75 27.6836C122.992 27.4413 123.221 27.1861 123.471 26.953C124.223 26.2531 125.083 25.7444 126.107 25.5785C127.268 25.3907 128.359 25.5617 129.347 26.3193C129.194 26.7805 128.894 27.1446 128.66 27.5418C128.423 27.9445 128.161 28.333 127.898 28.7455C127.727 28.685 127.587 28.6436 127.453 28.5871C126.646 28.2455 125.867 28.3334 125.111 28.7446C124.594 29.0262 124.183 29.4293 123.839 29.9015C123.237 30.7276 122.856 31.652 122.666 32.6523C122.495 33.5574 122.412 34.4737 122.41 35.3956C122.401 38.3707 122.397 41.3458 122.387 44.3209C122.386 44.5713 122.44 44.8352 122.292 45.0565Z" fill="#00579A"/>
<path d="M37.1327 44.157C37.107 43.9736 37.0729 43.8331 37.0697 43.692C37.0055 40.8807 37.0436 38.7742 37.1709 38.2921C37.701 38.153 38.256 38.2463 38.8034 38.23C39.3588 38.2135 39.9153 38.2157 40.4707 38.2293C41.0209 38.2429 41.5762 38.1656 42.1534 38.2907C42.1771 38.4448 42.2171 38.5877 42.2182 38.7308C42.2244 39.5646 42.2102 40.3986 42.2269 41.232C42.2333 41.5523 42.1211 41.7449 41.8323 41.8866C40.7206 42.4323 39.6178 42.9964 38.5102 43.5506C38.1854 43.713 37.8574 43.8688 37.5277 44.0207C37.4167 44.0717 37.296 44.1016 37.1327 44.157Z" fill="#00579A"/>
<path d="M16.2424 40.8813C16.1935 40.7261 16.1851 40.5806 16.34 40.4743L16.3488 40.4685C16.3135 40.604 16.2781 40.7395 16.2427 40.8768C16.2424 40.8786 16.2424 40.8813 16.2424 40.8813Z" fill="#00579A"/>
<path d="M16.354 40.4741C16.3495 40.4452 16.3449 40.4163 16.3405 40.3873C16.339 40.3998 16.3337 40.4134 16.337 40.4243C16.3418 40.4397 16.3531 40.4531 16.3623 40.4678C16.3629 40.4685 16.354 40.4741 16.354 40.4741Z" fill="#00579A"/>
</svg>
