<svg width="17" height="16" viewBox="0 0 17 16" fill="none" xmlns="http://www.w3.org/2000/svg">
<g clip-path="url(#clip0_1330_26353)">
<path d="M4.38344 3.33333C4.42344 3.92667 4.52344 4.50667 4.68344 5.06L3.88344 5.86C3.6101 5.06 3.43677 4.21333 3.37677 3.33333H4.38344ZM10.9568 11.3467C11.5234 11.5067 12.1034 11.6067 12.6901 11.6467V12.64C11.8101 12.58 10.9634 12.4067 10.1568 12.14L10.9568 11.3467ZM5.02344 2H2.6901C2.32344 2 2.02344 2.3 2.02344 2.66667C2.02344 8.92667 7.09677 14 13.3568 14C13.7234 14 14.0234 13.7 14.0234 13.3333V11.0067C14.0234 10.64 13.7234 10.34 13.3568 10.34C12.5301 10.34 11.7234 10.2067 10.9768 9.96C10.9101 9.93333 10.8368 9.92667 10.7701 9.92667C10.5968 9.92667 10.4301 9.99333 10.2968 10.12L8.8301 11.5867C6.94344 10.62 5.39677 9.08 4.43677 7.19333L5.90344 5.72667C6.0901 5.54 6.14344 5.28 6.0701 5.04667C5.82344 4.3 5.6901 3.5 5.6901 2.66667C5.6901 2.3 5.3901 2 5.02344 2Z" fill="white"/>
</g>
<defs>
<clipPath id="clip0_1330_26353">
<rect width="16" height="16" fill="white" transform="translate(0.0234375)"/>
</clipPath>
</defs>
</svg>
