<svg width="17" height="16" viewBox="0 0 17 16" fill="none" xmlns="http://www.w3.org/2000/svg">
<g clip-path="url(#clip0_1330_26359)">
<path d="M8.02409 1.33331C5.44409 1.33331 3.35742 3.41998 3.35742 5.99998C3.35742 9.49998 8.02409 14.6666 8.02409 14.6666C8.02409 14.6666 12.6908 9.49998 12.6908 5.99998C12.6908 3.41998 10.6041 1.33331 8.02409 1.33331ZM4.69076 5.99998C4.69076 4.15998 6.18409 2.66665 8.02409 2.66665C9.86409 2.66665 11.3574 4.15998 11.3574 5.99998C11.3574 7.91998 9.43742 10.7933 8.02409 12.5866C6.63742 10.8066 4.69076 7.89998 4.69076 5.99998Z" fill="white"/>
<path d="M8.02409 7.66665C8.94456 7.66665 9.69075 6.92045 9.69075 5.99998C9.69075 5.07951 8.94456 4.33331 8.02409 4.33331C7.10361 4.33331 6.35742 5.07951 6.35742 5.99998C6.35742 6.92045 7.10361 7.66665 8.02409 7.66665Z" fill="white"/>
</g>
<defs>
<clipPath id="clip0_1330_26359">
<rect width="16" height="16" fill="white" transform="translate(0.0234375)"/>
</clipPath>
</defs>
</svg>
