<svg width="154" height="31" viewBox="0 0 154 31" fill="none" xmlns="http://www.w3.org/2000/svg">
<g clip-path="url(#clip0_1330_26276)">
<path fill-rule="evenodd" clip-rule="evenodd" d="M22.7492 0.0940721H31.9436L30.9473 4.21104H30.9591L24.6986 30.1425L0.0449219 30.1528L0.787422 28.8785L1.65773 27.294L3.38752 24.1191H16.9893L22.7511 0.0940721H22.7492ZM61.8173 0.0957942L99.0539 0.0759888L96.9533 2.05827H87.6752L86.4845 3.17082H95.7752L94.7285 4.15679H94.7321L94.0644 4.78627H84.6674L83.4884 5.89537H92.8844L90.3257 8.29787H80.0747L74.3219 30.1434H65.3579L66.3056 26.2597H66.3128L71.0846 8.29874H57.0896L61.8182 0.0949326L61.8173 0.0957942ZM40.1813 23.6557C43.4618 27.0296 49.1165 23.6557 49.1165 23.6557L43.245 17.0476C42.8795 17.4592 36.8981 20.2828 40.1804 23.655L40.1813 23.6557ZM57.4659 23.7945L62.9603 30.1347H54.6354L52.8722 28.3367C48.5775 30.2657 43.9577 30.2657 43.9577 30.2657C37.0196 30.3931 33.5267 27.3215 33.5267 27.3215C26.568 19.6189 38.9402 12.3649 38.9402 12.3649C34.7841 7.96119 35.7542 3.80374 35.7542 3.80374C36.6443 0.113016 36.6345 0.0863222 36.6345 0.0863222H57.1193L52.3098 8.34954C52.2773 8.30046 52.4303 6.76079 52.3961 6.71687C52.5356 4.96709 50.5376 4.08446 48.5082 4.08446C46.0655 4.08446 44.0837 5.92724 44.0244 8.21779C44.0081 8.35557 44.0036 8.49594 44.0153 8.63716C44.0262 8.79732 44.0603 8.96437 44.1027 9.13316C44.2277 9.72904 44.4824 10.2784 44.8362 10.7555C47.0366 14.3033 52.8731 18.4917 52.8731 18.4917C53.6724 18.354 54.5508 13.6737 54.5508 13.6737L60.8912 15.3935C60.3089 20.077 57.4659 23.7945 57.4659 23.7945ZM91.1681 25.136H86.713L86.139 27.9906H91.1312L90.7037 30.1434H83.0403L85.4144 18.3401H92.8187L92.3733 20.4937H87.66L87.1414 23.0169H91.5938L91.1681 25.1352V25.136ZM99.0359 30.1443L98.1818 27.7641C97.9415 27.0451 97.7381 26.4845 97.515 25.7491H97.4789C97.0704 26.4147 96.7355 27.0098 96.1983 27.8503L94.7312 30.1443H91.5227L96.1983 24.1191L94.0076 18.3401H96.8282L97.5887 20.5989C97.811 21.3359 97.9793 21.8603 98.1648 22.5613H98.2196C98.6841 21.7553 98.9991 21.1938 99.4076 20.5644L100.856 18.3401H104.047L99.4814 24.138L101.875 30.1443H99.0359ZM107.073 23.8401C107.352 23.8917 107.647 23.9262 108.093 23.9262C109.708 23.9262 110.766 22.9453 110.766 21.7734C110.766 20.635 109.893 20.2664 108.855 20.2664C108.354 20.2664 108 20.3009 107.778 20.3542L107.073 23.8401ZM105.513 18.5666C106.312 18.3746 107.574 18.2514 108.78 18.2514C109.893 18.2514 111.192 18.428 112.101 19.0402C112.936 19.5827 113.457 20.4077 113.457 21.5452C113.457 23.035 112.732 24.1543 111.748 24.8725C110.729 25.6268 109.282 25.9593 107.76 25.9593C107.314 25.9593 106.942 25.9248 106.664 25.8886L105.81 30.1443H103.194L105.513 18.5666ZM117.634 23.5937H118.746C120.193 23.5937 121.251 22.7715 121.251 21.6149C121.251 20.6694 120.396 20.2483 119.34 20.2483C118.839 20.2483 118.523 20.2837 118.301 20.3362L117.634 23.5937ZM116.017 18.5675C116.854 18.3754 118.116 18.2523 119.358 18.2523C120.546 18.2523 121.772 18.428 122.643 18.9369C123.459 19.3907 124.035 20.1442 124.035 21.2473C124.035 22.9996 122.791 24.0846 121.195 24.5754V24.6461C121.938 24.944 122.253 25.7311 122.383 26.7989C122.53 28.1129 122.643 29.6551 122.866 30.1443H120.119C120.009 29.8299 119.878 28.8139 119.748 27.3595C119.637 25.9239 119.117 25.4856 118.06 25.4856H117.244L116.314 30.1443H113.662L116.017 18.5675ZM132.61 25.136H128.155L127.58 27.9906H132.571L132.146 30.1434H124.482L126.857 18.3401H134.261L133.815 20.4937H129.102L128.584 23.0169H133.035L132.61 25.1352V25.136ZM134.612 27.2785C135.352 27.6987 136.406 28.0311 137.554 28.0311C138.59 28.0311 139.534 27.5772 139.534 26.6498C139.534 25.9868 138.997 25.5511 137.85 24.9922C136.516 24.3102 135.259 23.4009 135.259 21.8647C135.259 19.4888 137.463 18.0388 140.181 18.0388C141.7 18.0388 142.587 18.354 143.124 18.633L142.291 20.7288C141.883 20.5205 140.996 20.1881 139.96 20.2053C138.721 20.2053 138.072 20.7995 138.072 21.4453C138.072 22.1273 138.83 22.5449 139.884 23.1047C141.404 23.8547 142.365 24.8166 142.365 26.2132C142.365 28.8345 140.07 30.1779 137.295 30.1779C135.555 30.1779 134.316 29.7594 133.723 29.3409L134.612 27.2785ZM143.675 27.2785C144.414 27.6987 145.47 28.0311 146.616 28.0311C147.653 28.0311 148.598 27.5772 148.598 26.6498C148.598 25.9868 148.06 25.5511 146.913 24.9922C145.581 24.3102 144.323 23.4009 144.323 21.8647C144.323 19.4888 146.525 18.0388 149.244 18.0388C150.762 18.0388 151.65 18.354 152.186 18.633L151.354 20.7288C150.948 20.5205 150.06 20.1881 149.023 20.2053C147.783 20.2053 147.134 20.7995 147.134 21.4453C147.134 22.1273 147.894 22.5449 148.949 23.1047C150.466 23.8547 151.429 24.8166 151.429 26.2132C151.429 28.8345 149.134 30.1779 146.359 30.1779C144.618 30.1779 143.379 29.7594 142.786 29.3409L143.675 27.2785Z" fill="white"/>
</g>
<defs>
<clipPath id="clip0_1330_26276">
<rect width="153" height="31" fill="white" transform="translate(0.0234375)"/>
</clipPath>
</defs>
</svg>
