<svg width="215" height="65" viewBox="0 0 215 65" fill="none" xmlns="http://www.w3.org/2000/svg">
<path fill-rule="evenodd" clip-rule="evenodd" d="M26.8991 6.7862C17.0688 11.1808 10.2188 21.0422 10.2188 32.5017C10.2188 43.9597 17.0688 53.8195 26.8991 58.2149C29.3451 59.2894 30.8598 59.5562 32.1528 59.5562C37.0518 59.5562 39.2953 43.8713 39.2953 32.501C39.2953 21.1291 37.0525 5.44336 32.1528 5.44336C30.8598 5.44336 29.3451 5.71177 26.8991 6.78466V6.7862Z" fill="url(#paint0_radial_9804_143224)"/>
<path fill-rule="evenodd" clip-rule="evenodd" d="M55.7596 17.168L42.9798 29.9374C42.1476 30.7689 41.6016 31.5805 41.6016 32.5337C41.6016 33.4878 42.1476 34.2975 42.9798 35.1291L55.7596 47.8986C56.5578 48.6988 57.2734 49.0412 58.2439 49.0412C61.6734 49.0412 65.2368 40.5259 65.2368 32.5337C65.2368 24.5407 61.6743 16.0271 58.2439 16.0271C57.2726 16.0271 56.5578 16.3695 55.7596 17.1689V17.168Z" fill="url(#paint1_radial_9804_143224)"/>
<path fill-rule="evenodd" clip-rule="evenodd" d="M105.785 25.5119C104.244 25.5119 102.995 24.3209 102.995 22.8501C102.995 21.3786 104.245 20.1876 105.785 20.1876C107.325 20.1876 108.575 21.3786 108.575 22.8501C108.575 24.3209 107.325 25.5119 105.785 25.5119ZM103.264 43.7089V27.4654C103.264 27.4654 104.126 28.0243 105.755 28.0243C107.384 28.0243 108.246 27.4654 108.246 27.4654V43.7089H103.264ZM165.837 27.4654V43.7089H165.838H170.82V27.4654C170.82 27.4654 169.957 28.0243 168.329 28.0243C166.699 28.0243 165.837 27.4654 165.837 27.4654ZM168.357 25.5119C166.816 25.5119 165.568 24.3209 165.568 22.8501C165.568 21.3786 166.816 20.1876 168.357 20.1876C169.898 20.1876 171.147 21.3786 171.147 22.8501C171.147 24.3209 169.897 25.5119 168.357 25.5119ZM157.209 43.7089L164.839 20.7001H159.534L153.749 39.5779L147.958 20.7001H142.659L150.289 43.7089H157.209ZM124.057 34.9925C124.057 31.8679 122.581 30.0579 120.029 30.0579C117.511 30.0579 116.035 31.8679 116.035 34.9925C116.035 38.1178 117.511 39.9271 120.029 39.9271C122.581 39.9271 124.057 38.117 124.057 34.9925ZM111.235 34.9925C111.235 29.4982 114.826 25.782 120.029 25.782C125.265 25.782 128.856 29.4989 128.856 34.9925C128.856 40.4853 125.264 44.2038 120.029 44.2038C114.826 44.2038 111.235 40.486 111.235 34.9925ZM137.947 37.9311V30.2691H137.948H142.159V26.6901H137.948V20.6826H134.47L133.226 26.6901H130.35V30.2691H133.291V38.5792C133.291 42.624 135.179 44.2031 139.08 44.2031C140.667 44.2031 142.158 43.9118 142.158 43.9118V39.9188H140.13C138.486 39.9188 137.947 39.382 137.947 37.9311ZM199.646 30.2691V37.9311C199.646 39.382 200.186 39.9188 201.83 39.9188H203.858V43.9118C203.858 43.9118 202.368 44.2031 200.78 44.2031C196.879 44.2031 194.991 42.624 194.991 38.5792V30.2691H192.05V26.6901H194.926L196.171 20.6826H199.646V26.6901H203.858V30.2691H199.646ZM182.231 29.7292C184.413 29.7292 185.723 30.9469 185.89 33.0521H178.641C178.807 31.0453 180.251 29.7292 182.231 29.7292ZM182.198 25.7827C177.263 25.7827 173.806 29.5653 173.806 34.9933C173.806 40.5189 177.264 44.2031 182.299 44.2031C185.655 44.2031 188.273 42.8886 189.986 40.2565L186.595 37.6581C185.353 39.4339 184.044 40.2565 182.299 40.2565C180.116 40.2565 178.774 38.8414 178.641 36.3741H190.493C190.493 36.3741 190.555 35.7306 190.555 34.9933C190.555 29.4899 187.165 25.7827 182.198 25.7827ZM88.2942 43.7096H83.3125V20.6832H88.2942V43.7096ZM96.5633 43.7096H102.268L94.4219 31.636L101.877 20.6817H96.4778L89.5341 31.177C89.3709 31.4126 89.2908 31.6841 89.292 31.9555C89.2926 32.2277 89.3751 32.4991 89.5395 32.7332L96.5633 43.7096Z" fill="#002957"/>
<defs>
<radialGradient id="paint0_radial_9804_143224" cx="0" cy="0" r="1" gradientUnits="userSpaceOnUse" gradientTransform="translate(3.23991 32.5083) scale(39.4751 57.1498)">
<stop stop-color="#3AE3FF"/>
<stop offset="1" stop-color="#0070F4"/>
</radialGradient>
<radialGradient id="paint1_radial_9804_143224" cx="0" cy="0" r="1" gradientUnits="userSpaceOnUse" gradientTransform="translate(40.6707 32.3769) scale(24.6659 40.6168)">
<stop stop-color="#5BE92A"/>
<stop offset="0.39166" stop-color="#2DCF34"/>
<stop offset="1" stop-color="#00B63E"/>
</radialGradient>
</defs>
</svg>
