<svg width="180" height="65" viewBox="0 0 180 65" fill="none" xmlns="http://www.w3.org/2000/svg">
<path fill-rule="evenodd" clip-rule="evenodd" d="M74.1875 16.2942H78.0772V35.0114H84.7828V38.706H74.2034L74.1875 16.2942Z" fill="#1B2852"/>
<path fill-rule="evenodd" clip-rule="evenodd" d="M93.787 21.9097C95.8479 21.884 97.8016 22.8233 99.0689 24.4487V22.2432H102.698V38.7387H99.0689V36.5332C97.8016 38.1585 95.8479 39.0982 93.787 39.0722C89.2623 39.0722 85.8281 35.2067 85.8281 30.4868C85.8281 25.7668 89.2626 21.9097 93.787 21.9097ZM94.4467 25.2135C91.5088 25.2135 89.5635 27.5248 89.5635 30.4868C89.5635 33.449 91.5411 35.7681 94.4467 35.7681C97.3518 35.7681 99.3294 33.457 99.3294 30.4868C99.3291 27.5165 97.3841 25.2135 94.4467 25.2135Z" fill="#1B2852"/>
<path fill-rule="evenodd" clip-rule="evenodd" d="M105.523 35.874L114.174 25.5389H105.653V22.2432H118.861V25.1485L110.243 35.4427H119.057V38.7387H105.523V35.874Z" fill="#1B2852"/>
<path fill-rule="evenodd" clip-rule="evenodd" d="M128.287 21.9097C130.347 21.884 132.302 22.8233 133.568 24.4487V22.2432H137.198V38.7387H133.568V36.5332C132.301 38.1585 130.347 39.0982 128.287 39.0722C123.762 39.0722 120.336 35.2067 120.336 30.4868C120.336 25.7668 123.762 21.9097 128.287 21.9097ZM128.946 25.2135C126.008 25.2135 124.063 27.5248 124.063 30.4868C124.063 33.449 126.041 35.7681 128.946 35.7681C131.851 35.7681 133.829 33.457 133.829 30.4868C133.829 27.5165 131.884 25.2135 128.946 25.2135Z" fill="#1B2852"/>
<path fill-rule="evenodd" clip-rule="evenodd" d="M147.568 21.9098C149.627 21.8826 151.579 22.8228 152.842 24.4488V14.9681H156.471V38.7388H152.842V36.5333C151.579 38.1595 149.627 39.0994 147.568 39.0723C143.044 39.0723 139.609 35.2068 139.609 30.4868C139.609 25.7669 143.044 21.9098 147.568 21.9098ZM148.227 25.2135C145.289 25.2135 143.344 27.5249 143.344 30.4868C143.344 33.449 145.33 35.7682 148.227 35.7682C151.124 35.7682 153.11 33.4571 153.11 30.4868C153.11 27.5165 151.165 25.2135 148.227 25.2135Z" fill="#1B2852"/>
<path fill-rule="evenodd" clip-rule="evenodd" d="M166.834 21.9096C168.893 21.8825 170.845 22.8227 172.108 24.4486V22.2431H175.729V38.7386H172.092V36.5331C170.829 38.1593 168.877 39.0992 166.818 39.0721C162.294 39.0721 158.859 35.2067 158.859 30.4867C158.859 25.7667 162.309 21.9096 166.834 21.9096ZM167.494 25.2134C164.556 25.2134 162.61 27.5248 162.61 30.4867C162.61 33.4489 164.596 35.7681 167.494 35.7681C170.39 35.7681 172.376 33.457 172.376 30.4867C172.376 27.5164 170.431 25.2134 167.494 25.2134Z" fill="#1B2852"/>
<path fill-rule="evenodd" clip-rule="evenodd" d="M31.7284 54.9999C31.3349 55.0025 30.9475 54.9019 30.605 54.708C27.6731 53.0117 5.95942 39.397 5.13953 38.9816C4.51553 38.6902 4.08943 38.0936 4.01616 37.4088V18.3125C4 17.5997 4.35225 16.9289 4.94827 16.5377L5.10549 16.448C7.20598 15.1449 14.2379 10.8539 15.35 10.236C15.6053 10.0845 15.8961 10.0032 16.1927 10C16.4708 10.0032 16.7443 10.0724 16.9904 10.2022C16.9904 10.2022 26.8304 16.6165 28.3358 17.1894C29.3919 17.6747 30.5436 17.9164 31.7056 17.8971C33.0226 17.9245 34.3237 17.6069 35.4799 16.976C36.9515 16.2008 46.3536 10.236 46.4546 10.236C46.6918 10.0929 46.9641 10.019 47.241 10.0225C47.5379 10.0239 47.829 10.1053 48.0837 10.2585C49.3643 10.9661 58.0813 16.302 58.4517 16.5377C59.0648 16.9076 59.4363 17.5743 59.4291 18.29V37.3863C59.3605 38.0729 58.9329 38.6712 58.3057 38.9588C57.4856 39.408 35.8394 53.0226 32.8512 54.6852C32.5117 54.8874 32.1242 54.9959 31.7284 54.9999Z" fill="url(#paint0_linear_9804_143248)"/>
<path fill-rule="evenodd" clip-rule="evenodd" d="M31.5171 54.7309H31.406C31.0166 54.7335 30.6334 54.6337 30.2945 54.4418C27.394 52.7637 5.92263 39.2941 5.1114 38.8827C4.49115 38.5983 4.06822 38.006 4.00014 37.3269V18.4341C3.99639 18.1141 4.0688 17.7982 4.21131 17.5115L31.5171 32.5037V54.7309Z" fill="url(#paint1_linear_9804_143248)"/>
<defs>
<linearGradient id="paint0_linear_9804_143248" x1="4.15737" y1="32.6535" x2="59.06" y2="32.2282" gradientUnits="userSpaceOnUse">
<stop stop-color="#F8B500"/>
<stop offset="0.33" stop-color="#EF7C00"/>
<stop offset="0.56" stop-color="#E7336F"/>
<stop offset="0.78" stop-color="#D14492"/>
<stop offset="0.93" stop-color="#B64F98"/>
<stop offset="1" stop-color="#AD529B"/>
</linearGradient>
<linearGradient id="paint1_linear_9804_143248" x1="26.2001" y1="33.053" x2="4.48223" y2="41.0469" gradientUnits="userSpaceOnUse">
<stop stop-color="#EA5705"/>
<stop offset="0.15" stop-color="#EB5E02"/>
<stop offset="0.5" stop-color="#F18700"/>
<stop offset="1" stop-color="#F49E00"/>
</linearGradient>
</defs>
</svg>
