<svg width="164" height="65" viewBox="0 0 164 65" fill="none" xmlns="http://www.w3.org/2000/svg">
<path d="M42.6413 33.6653V15.3309H48.3592V16.5427C48.3592 17.2093 48.3694 17.7546 48.3817 17.7546C48.3942 17.7546 48.755 17.5349 49.1837 17.2664C54.2407 14.0991 61.5919 13.1453 68.1853 14.8011C74.1254 16.293 78.4316 19.8342 79.9624 24.4864C80.8569 27.205 80.8076 30.2282 79.8258 32.8574C78.6045 36.1279 76.0938 38.7574 72.4724 40.5589C69.3033 42.1352 65.6849 42.9245 61.6282 42.9245C58.2653 42.9245 55.1288 42.3637 52.3679 41.2689C51.2724 40.8345 49.868 40.1214 49.0162 39.5668L48.3592 39.1392V52H42.6413V33.6653ZM64.394 38.0503C67.6103 37.5941 70.1056 36.5736 71.9765 34.9496C73.3928 33.7203 74.379 32.013 74.7527 30.1439C74.9056 29.3794 74.9059 27.5742 74.7536 26.812C74.3136 24.6123 73.0531 22.6909 71.1663 21.3435C70.4057 20.8005 68.8608 20.0265 67.8746 19.6948C65.0899 18.7581 61.7134 18.4807 58.6209 18.9346C53.2517 19.7225 49.6228 22.3856 48.6491 26.2517C48.2195 27.9576 48.2963 29.7992 48.864 31.4085C50.1533 35.0644 53.9556 37.4973 59.3288 38.1044C60.4091 38.2266 63.3751 38.1948 64.3942 38.0503H64.394ZM83.3502 33.6653V15.3309H89.0679V16.5427C89.0679 17.2093 89.0804 17.7546 89.0954 17.7546C89.1106 17.7546 89.4251 17.5576 89.7945 17.317C90.6494 16.7597 92.3365 15.9262 93.4184 15.527C98.0885 13.8033 103.791 13.5252 108.781 14.7781C116.915 16.8202 121.705 22.4152 121.253 29.3458C120.908 34.6361 117.388 38.9816 111.598 41.2653C109.709 42.0102 107.773 42.4799 105.351 42.7813C104.072 42.9403 100.626 42.9403 99.2917 42.7809C95.514 42.3303 92.1975 41.2085 89.6116 39.5068L89.0679 39.149V52H83.3502V33.6653ZM105.241 38.0233C109.696 37.3581 112.835 35.5637 114.484 32.7396C115.442 31.0992 115.801 28.9169 115.445 26.8908C114.707 22.6796 111.006 19.7656 105.339 18.9337C101.599 18.3848 97.3767 18.9316 94.5062 20.3364C91.5759 21.7706 89.8124 23.9118 89.2104 26.7665C89.0525 27.516 89.0529 29.4426 89.2113 30.1771C89.6377 32.1545 90.6014 33.7905 92.0639 35.0199C94.0777 36.7129 96.6988 37.7211 100.1 38.1108C101.225 38.2396 104.123 38.1903 105.241 38.0233ZM19.0238 42.8867C15.9908 42.6187 13.402 42.0212 11.2007 41.081C6.19353 38.9423 3.03101 35.3327 2.17273 30.7768C2.00875 29.9067 1.94624 27.9463 2.05252 27.0096C2.67234 21.5475 6.69599 17.2211 13.0575 15.1767C16.4427 14.0889 20.6096 13.7335 24.35 14.2136C31.2025 15.0935 36.386 18.271 38.6643 22.9886C40.5195 26.8297 40.284 31.4955 38.0541 35.0826C37.0495 36.6985 35.3958 38.3661 33.6916 39.4814C31.0401 41.2165 27.8733 42.296 24.027 42.7756C23.2566 42.8717 19.7385 42.9497 19.0238 42.8867ZM23.08 38.1103C26.0626 37.7938 28.5717 36.9421 30.4596 35.606C32.0029 34.5135 33.2243 32.9034 33.7723 31.2389C34.0931 30.2646 34.1567 29.8072 34.1567 28.4757C34.1567 27.1482 34.094 26.6945 33.7757 25.7196C32.7295 22.5149 29.6697 20.131 25.3944 19.19C21.6458 18.3648 17.2742 18.6517 14.0354 19.9351C11.6987 20.8611 9.8544 22.3601 8.77266 24.212C7.62269 26.1813 7.36154 28.8635 8.09532 31.1751C8.88591 33.6658 10.9685 35.7502 13.8343 36.9192C15.3953 37.556 17.328 37.9999 19.2414 38.1607C19.9755 38.2223 22.3132 38.1916 23.08 38.1103ZM141.026 42.8888C140.907 42.8752 140.487 42.8334 140.094 42.7963C136.938 42.4971 133.619 41.5004 131.187 40.1207C127.898 38.2555 125.607 35.6044 124.562 32.4533C123.854 30.3209 123.733 27.9243 124.222 25.7194C124.962 22.3854 126.991 19.5544 130.143 17.4606C134.299 14.6995 140.41 13.473 146.309 14.2165C151.21 14.834 155.248 16.6264 158.058 19.4319C160.197 21.5684 161.427 24.072 161.783 27.0135C161.875 27.778 161.861 29.324 161.754 30.1351C160.983 35.9763 156.352 40.4408 149.261 42.18C147.111 42.7073 145.761 42.867 143.233 42.8931C142.139 42.9044 141.146 42.9024 141.026 42.8888ZM144.786 38.1392C148.562 37.792 151.639 36.5477 153.614 34.5698C154.952 33.2307 155.728 31.7565 156.034 29.9747C156.16 29.2406 156.158 27.71 156.031 26.9485C155.342 22.8488 151.727 19.8768 146.371 19.0075C145.085 18.7987 144.23 18.7306 142.891 18.7306C136.885 18.7306 132.226 20.995 130.434 24.7841C129.9 25.9136 129.653 27.0791 129.653 28.4757C129.653 30.3186 130.083 31.7803 131.052 33.2366C132.832 35.9102 136.207 37.6182 140.675 38.1062C141.597 38.2068 143.856 38.225 144.786 38.1394L144.786 38.1392Z" fill="#006B33"/>
</svg>
