<svg width="228" height="65" viewBox="0 0 228 65" fill="none" xmlns="http://www.w3.org/2000/svg">
<path d="M10.2508 34.0438C9.623 34.0438 9.10938 33.5241 9.10938 32.8889C9.10938 28.7319 10.479 24.8636 12.9901 21.5726C14.2456 19.9559 15.7294 18.628 17.4415 17.531C17.9552 17.1846 18.64 17.3578 18.9823 17.8774C19.3248 18.3971 19.1536 19.0899 18.64 19.4363C17.1562 20.4178 15.8436 21.5726 14.7593 23.016C12.5335 25.8452 11.3922 29.2516 11.3922 32.8889C11.3922 33.5241 10.8785 34.0438 10.2508 34.0438ZM23.2627 17.4733C22.7491 17.4733 22.2925 17.1269 22.1783 16.6072C22.0641 15.9721 22.4066 15.3948 23.0344 15.2215C24.3469 14.8751 25.7736 14.7596 27.1433 14.7596C27.7711 14.7596 28.2847 15.2793 28.2847 15.9144C28.2847 16.5495 27.7711 17.0691 27.1433 17.0691C25.9448 17.0691 24.6894 17.1846 23.548 17.4733C23.4337 17.4155 23.3197 17.4733 23.2627 17.4733Z" fill="#223A94"/>
<path d="M27.7111 10.3095C32.562 10.3095 37.1276 11.8684 41.0083 14.7552C44.2042 17.1224 46.6581 20.2402 48.2561 23.8777L37.9265 27.2841C35.872 23.5889 32.0484 21.2217 27.7111 21.2217C21.2622 21.164 16.0119 26.4756 16.0119 33C16.0119 39.5244 21.2622 44.8359 27.7111 44.8359C31.9914 44.8359 35.872 42.4688 37.9265 38.7738L48.2561 42.1802C46.7151 45.8177 44.2042 48.9353 41.0083 51.3025C37.1276 54.1894 32.505 55.7483 27.7111 55.7483C15.327 55.6905 5.28278 45.5289 5.28278 33C5.28278 20.4711 15.327 10.3095 27.7111 10.3095ZM27.7111 8C14.0715 8 3 19.2009 3 33C3 46.7991 14.0715 58 27.7111 58C38.6684 58 47.9708 50.7252 51.2237 40.7367L36.6711 35.9445C35.4725 39.7552 31.8772 42.5266 27.7111 42.5266C22.5178 42.5266 18.2946 38.2541 18.2946 33C18.2946 27.7459 22.5178 23.4734 27.7111 23.4734C31.8772 23.4734 35.4725 26.2448 36.6711 30.0555L51.2237 25.2633C47.9708 15.2748 38.6684 8 27.7111 8Z" fill="#223A94"/>
<path d="M58.128 28.2045C58.4705 29.7634 58.6417 31.38 58.6417 32.9967C58.6417 34.6133 58.4705 36.23 58.128 37.7889L45.8581 33.7474L43.5183 32.9967L45.8009 32.2461L58.128 28.2045ZM59.6689 25.26L45.1163 30.0522L36.1562 32.9967L45.1163 35.9413L59.6689 40.7335C60.4678 38.3085 60.8674 35.7103 60.8674 32.9967C60.8674 30.2831 60.4678 27.6849 59.6689 25.26Z" fill="#43B5C3"/>
<path d="M80.2239 22.7004C82.8228 22.7004 84.8677 23.3287 86.3583 24.5853C87.8487 25.842 88.5941 27.5723 88.5941 29.7764C88.5941 31.9803 87.8487 33.7106 86.3583 34.9673C84.8677 36.2241 82.8228 36.8523 80.2239 36.8523H75.2648V43.0003H72.3984V22.7004H80.2239ZM80.138 34.3294C81.9534 34.3294 83.3387 33.9427 84.2944 33.1694C85.2498 32.3767 85.7277 31.2456 85.7277 29.7764C85.7277 28.307 85.2498 27.1856 84.2944 26.4123C83.3387 25.6197 81.9534 25.2234 80.138 25.2234H75.2648V34.3294H80.138ZM104.582 37.9253H93.9189L91.7117 43.0003H88.7592L97.8459 22.7004H100.684L109.799 43.0003H106.789L104.582 37.9253ZM103.579 35.6053L99.2505 25.6584L94.9222 35.6053H103.579ZM130.049 22.7004V43.0003H127.698L115.659 27.8623V43.0003H112.792V22.7004H115.143L127.182 37.8384V22.7004H130.049ZM145.027 43.2323C143.02 43.2323 141.205 42.7877 139.58 41.8984C137.975 40.9897 136.714 39.7523 135.797 38.1864C134.879 36.6011 134.421 34.8223 134.421 32.8503C134.421 30.8784 134.879 29.1094 135.797 27.5434C136.714 25.9581 137.985 24.7208 139.609 23.8314C141.233 22.9227 143.049 22.4684 145.055 22.4684C146.622 22.4684 148.056 22.739 149.355 23.2804C150.655 23.8023 151.763 24.5853 152.68 25.6294L150.817 27.4564C149.307 25.8517 147.425 25.0494 145.17 25.0494C143.68 25.0494 142.332 25.3876 141.128 26.0644C139.924 26.7411 138.978 27.6787 138.29 28.8773C137.622 30.0567 137.287 31.3811 137.287 32.8503C137.287 34.3197 137.622 35.6537 138.29 36.8523C138.978 38.0317 139.924 38.9597 141.128 39.6364C142.332 40.3131 143.68 40.6514 145.17 40.6514C147.406 40.6514 149.288 39.8394 150.817 38.2153L152.68 40.0423C151.763 41.0864 150.645 41.8791 149.327 42.4203C148.027 42.9617 146.594 43.2323 145.027 43.2323ZM169.078 37.9253H158.415L156.208 43.0003H153.255L162.342 22.7004H165.18L174.295 43.0003H171.286L169.078 37.9253ZM168.075 35.6053L163.747 25.6584L159.419 35.6053H168.075ZM183.823 33.9814L180.155 37.7514V43.0003H177.287V22.7004H180.155V34.0394L191.047 22.7004H194.316L185.744 31.8353L194.859 43.0003H191.506L183.823 33.9814ZM212.453 40.4773V43.0003H197.891V22.7004H212.052V25.2234H200.758V31.4584H210.819V33.9234H200.758V40.4773H212.453Z" fill="#223A94"/>
</svg>
