<svg width="128" height="65" viewBox="0 0 128 65" fill="none" xmlns="http://www.w3.org/2000/svg">
<g clip-path="url(#clip0_9804_143202)">
<path d="M37.6429 31.7879V17.7833C37.6429 13.9875 34.5663 10.9108 30.7713 10.9108L9.87151 14.353C6.07556 14.353 3 17.4298 3 21.2258V42.1252C3 45.9203 6.07556 48.997 9.87151 48.997H30.7713C34.5663 48.997 37.6429 45.9201 37.6429 42.1252V33.9509C37.6224 33.598 37.6091 33.2416 37.6091 32.8784C37.6092 32.5122 37.6214 32.1489 37.6429 31.7879ZM29.5673 44.4904C27.1453 46.1615 24.2197 46.9971 20.7955 46.9971C15.864 46.9971 11.3109 45.2219 7.13444 41.67L11.5975 37.1581C14.3593 40.1248 17.5463 41.6073 21.1505 41.6073C22.5332 41.6073 23.8125 41.3148 24.9864 40.7312C26.4545 40.0234 27.1851 39.0457 27.1851 37.7931C27.1851 35.9606 25.8484 34.7935 23.1731 34.2921L19.4778 33.5893C16.1765 32.9617 13.7324 32.1686 12.1464 31.2079C9.76708 29.745 8.57326 27.6569 8.57326 24.9396C8.57326 21.8478 9.82916 19.3826 12.3349 17.5432C14.5495 15.872 17.2649 15.0364 20.4807 15.0364C24.5748 15.0364 28.5855 16.4377 32.5141 19.2354L28.8032 23.8097C26.1201 21.5535 23.392 20.426 20.6266 20.426C19.2846 20.426 18.0694 20.7203 16.9798 21.3039C15.6797 22.0143 15.0298 22.9944 15.0298 24.2496C15.0298 25.8792 16.3643 26.9431 19.0414 27.4472L25.6183 28.6988C30.9681 29.7 33.6414 32.3969 33.6414 36.7836C33.6416 40.0428 32.2829 42.6102 29.5673 44.4904Z" fill="#0FD186"/>
<path d="M59.8005 23.3367C58.7555 21.8409 57.4656 20.7027 55.9293 19.9225C54.394 19.1431 52.7147 18.7539 50.89 18.7539C48.9411 18.7539 47.1437 19.1279 45.4991 19.8759C43.8544 20.6238 42.3619 21.7789 41.0216 23.3369C40.1793 24.3041 39.5133 25.274 39.0219 26.2488C38.5313 27.2238 38.1713 28.276 37.9463 29.4056C37.7901 30.1867 37.689 30.981 37.6406 31.7881V33.9511C37.8328 37.2772 38.927 40.1397 40.9279 42.5366C42.1281 43.9552 43.5624 45.0542 45.2309 45.8336C46.8984 46.6131 48.7234 47.0022 50.7035 47.0022C52.3871 47.0022 54.0662 46.5968 55.7431 45.7867C57.4184 44.9768 58.7397 43.8922 59.7058 42.5366H59.8004V46.1378H65.6692V19.5953H59.8004V23.3367H59.8005ZM58.6199 36.8885C57.9751 38.0963 57.0594 39.0483 55.8762 39.7409C54.693 40.4361 53.3545 40.7821 51.8606 40.7821C49.7109 40.7821 47.867 40.0418 46.3256 38.5602C44.7846 37.0796 44.0141 35.2633 44.0141 33.112C44.0141 30.7576 44.7582 28.813 46.2442 27.277C47.731 25.7421 49.634 24.9738 51.9526 24.9738C53.0587 24.9738 54.0866 25.1726 55.0359 25.5705C55.9852 25.9682 56.7954 26.5172 57.4642 27.2185C58.1339 27.9205 58.6548 28.7502 59.0287 29.7096C59.4013 30.6683 59.5896 31.7087 59.5896 32.8307C59.5897 34.3283 59.2653 35.6807 58.6199 36.8885Z" fill="#0089FF"/>
<path d="M37.6094 32.8784C37.6094 33.2418 37.6227 33.5982 37.6432 33.951V31.788C37.6215 32.1489 37.6094 32.5123 37.6094 32.8784Z" fill="#0089FF"/>
<path d="M93.6358 25.8271C93.0604 24.7444 92.3966 23.8205 91.6486 23.0564C90.3235 21.5442 88.8856 20.4486 87.3341 19.7704C85.7827 19.0922 84.0103 18.754 82.0144 18.754C78.2722 18.754 75.4352 20.1878 73.5029 23.0565H73.385V19.5952H67.5625V55H73.9234V43.2605H74.0164C75.9657 45.7559 78.6311 47.0019 82.0144 47.0019C83.885 47.0019 85.6415 46.6279 87.2866 45.8799C88.932 45.1319 90.3625 44.0908 91.5788 42.758C92.7946 41.4246 93.7219 39.909 94.3614 38.21C95.0006 36.511 95.3204 34.7337 95.3204 32.8782C95.3204 31.6619 95.1832 30.4532 94.9116 29.2532C94.6383 28.0533 94.2137 26.9107 93.6358 25.8271ZM87.9425 36.8297C87.2645 38.0462 86.3211 39.009 85.1124 39.7178C83.9043 40.4285 82.5672 40.782 81.1018 40.782C80.2445 40.782 79.3634 40.6035 78.4589 40.2439C77.5559 39.8854 76.7438 39.3948 76.027 38.771C74.3751 37.2904 73.5486 35.3263 73.5486 32.8784C73.5486 31.4436 73.888 30.1185 74.5655 28.9024C75.2438 27.6868 76.1764 26.7274 77.3608 26.0261C78.5452 25.325 79.871 24.9739 81.3359 24.9739C82.7548 24.9739 84.0488 25.3359 85.2171 26.0618C86.387 26.786 87.3027 27.7565 87.9662 28.973C88.6281 30.1893 88.9594 31.4751 88.9594 32.8308C88.9595 34.2807 88.6206 35.6144 87.9425 36.8297Z" fill="#0089FF"/>
<path d="M124.114 27.4651C123.418 25.7575 122.432 24.2488 121.153 22.9398C119.874 21.6293 118.387 20.605 116.694 19.8647C115.001 19.1244 113.187 18.7539 111.252 18.7539C109.256 18.7539 107.39 19.1159 105.659 19.8409C103.928 20.5658 102.406 21.5714 101.094 22.8574C99.7842 24.1435 98.7578 25.6486 98.017 27.3705C97.2765 29.0935 96.9062 30.9446 96.9062 32.925C96.9062 35.435 97.5407 37.774 98.8136 39.9405C100.085 42.107 101.8 43.8257 103.962 45.0973C106.123 46.3671 108.459 47.0021 110.972 47.0021C112.875 47.0021 114.688 46.6477 116.413 45.9388C118.137 45.229 119.666 44.2116 121 42.8866C122.335 41.5616 123.36 40.0495 124.078 38.3504C124.796 36.6505 125.155 34.8418 125.155 32.9251C125.155 30.9915 124.807 29.1709 124.114 27.4651ZM117.743 36.8765C117.074 38.0928 116.147 39.0482 114.964 39.7408C113.781 40.436 112.451 40.7819 110.972 40.7819C109.571 40.7819 108.282 40.4308 107.108 39.7295C105.932 39.0284 105.006 38.0662 104.328 36.8414C103.651 35.6176 103.313 34.312 103.313 32.9248C103.313 30.7262 104.045 28.8868 105.508 27.4053C106.193 26.6573 107.037 26.065 108.041 25.6289C109.045 25.1921 110.022 24.9738 110.972 24.9738C112.388 24.9738 113.696 25.329 114.895 26.0371C116.094 26.7476 117.035 27.7181 117.72 28.9498C118.405 30.1805 118.746 31.5065 118.746 32.9248C118.746 34.3436 118.413 35.6602 117.743 36.8765Z" fill="#0089FF"/>
</g>
<defs>
<clipPath id="clip0_9804_143202">
<rect width="122.157" height="45" fill="white" transform="translate(3 10)"/>
</clipPath>
</defs>
</svg>
