<svg width="236" height="65" viewBox="0 0 236 65" fill="none" xmlns="http://www.w3.org/2000/svg">
<path d="M25 52C35.4934 52 44 43.4934 44 33C44 22.5066 35.4934 14 25 14C14.5066 14 6 22.5066 6 33C6 43.4934 14.5066 52 25 52Z" fill="#000002"/>
<path d="M31.9468 29.8554L32.9153 26.2367H29.2992L28.3281 29.8554H31.9468Z" fill="#000002"/>
<path d="M33.8789 22.6276L32.9062 26.2457H36.5286L37.4997 22.6276H33.8789Z" fill="#FED301"/>
<path d="M23.9007 26.2367H20.2805L19.3125 29.8554H22.9285L23.9007 26.2367Z" fill="#FED301"/>
<path d="M19.3283 29.8461H15.7112L14.7422 33.4626H18.3577L19.3283 29.8461Z" fill="#FED301"/>
<path d="M27.4348 29.8554L28.4064 26.2367H24.7867L23.8203 29.8554H27.4348Z" fill="#FED301"/>
<path d="M27.27 30.7073H23.6471L22.6797 34.3244H26.3015L27.27 30.7073Z" fill="#FED301"/>
<path d="M31.9436 29.8554L32.9174 26.2367H29.3013L28.3281 29.8554H31.9436Z" fill="#FED301"/>
<path d="M17.0391 38.8001H20.6546L21.6252 35.1788H18.0076L17.0391 38.8001Z" fill="#FED301"/>
<path d="M30.6267 35.1788H27.0081L26.0391 38.8001H29.6582L30.6267 35.1788Z" fill="#FED301"/>
<path d="M12.4531 42.407H16.0692L17.0382 38.7858H13.4258L12.4531 42.407Z" fill="#FED301"/>
<path d="M28.6719 42.407H32.2895L33.2575 38.7858H29.6399L28.6719 42.407Z" fill="#FED301"/>
<path d="M30.316 22.4115C30.316 24.0633 28.9734 25.4054 27.3142 25.4054C25.6629 25.4054 24.3203 24.0633 24.3203 22.4115C24.3203 20.7507 25.6629 19.4113 27.3142 19.4113C28.9729 19.4113 30.316 20.7507 30.316 22.4115Z" fill="#FED301"/>
<path d="M223.635 34.5529C223.397 35.4602 222.933 37.0241 222.409 37.4741C221.884 37.9272 221.315 38.1574 220.717 38.1574C220.08 38.1574 219.617 37.9324 219.342 37.4861C219.071 37.0445 219.129 35.4905 219.365 34.5874C219.638 33.565 220.106 32.6912 220.587 32.2475C221.071 31.8007 221.628 31.5762 222.245 31.5762C222.865 31.5762 223.332 31.8253 223.633 32.3161C223.932 32.8042 223.876 33.6419 223.635 34.5529ZM225.585 28.5085C225.568 28.5734 225.079 30.4283 225.079 30.4283L225.026 30.3111C224.688 29.5681 224.246 29.0286 223.719 28.7063C223.188 28.3851 222.436 28.2218 221.484 28.2218C219.994 28.2218 218.637 28.7283 217.452 29.7298C216.264 30.7296 215.32 32.3349 214.814 34.2489C214.373 35.9217 214.298 38.1564 214.745 39.1678C215.37 40.5925 216.513 41.3156 218.144 41.3156C218.98 41.3156 219.821 41.1204 220.647 40.7353C221.173 40.4863 221.747 40.0855 222.352 39.5382L222.448 39.4524L222.428 39.5816C222.407 39.7088 221.989 42.1653 220.906 43.1898C220.08 43.9705 218.146 43.9762 216.515 43.871L214.938 43.7994C213.224 43.7994 212.303 46.6259 212.039 47.5776H218.215C219.292 47.5776 220.291 47.4792 221.18 47.2856C222.068 47.0931 222.851 46.7776 223.505 46.3475C224.159 45.9169 224.75 45.3455 225.263 44.6491C225.794 43.9255 226.4 41.921 226.572 41.2785C226.572 41.2785 229.91 28.6216 229.94 28.5091L225.585 28.5085Z" fill="#000002"/>
<path d="M110.305 41.2556H114.959C114.977 41.1871 118.251 28.6207 118.281 28.5082H113.627C113.609 28.5762 110.335 41.141 110.305 41.2556Z" fill="#000002"/>
<path d="M114.794 24.236C114.775 24.3019 114.069 26.9793 114.039 27.0891H118.694C118.711 27.0227 119.418 24.3458 119.447 24.236H114.794Z" fill="#000002"/>
<path d="M74.0094 28.2213C73.1487 28.2213 72.3566 28.3667 71.6491 28.6503C70.9438 28.9329 70.1731 29.4137 69.3569 30.0772L69.2486 30.1666C69.2486 30.1666 70.8235 24.3483 70.8538 24.2358H66.1992C66.2986 23.867 61.8517 40.705 61.7109 41.2559H66.363C66.4598 40.9001 67.9269 35.3309 67.9269 35.3309C68.2278 34.1986 68.6955 32.9575 69.1727 32.5175C69.652 32.0769 70.1904 31.853 70.7764 31.853C71.3111 31.853 71.6889 32.021 71.8982 32.359C72.0023 32.5243 72.0531 32.7488 72.0531 33.0313C72.0531 33.3133 72.0028 33.6534 71.8982 34.0453C71.8982 34.0453 70.0659 41.1419 70.0371 41.2565H74.7153C74.8121 40.8939 76.8636 32.9633 76.8636 32.9633C77.052 32.2465 77.1478 31.6097 77.1478 31.0566C77.1478 30.3702 77.0023 29.8098 76.7114 29.3823C76.1861 28.6126 75.2777 28.2213 74.0094 28.2213Z" fill="#000002"/>
<path d="M104.182 34.5529C103.943 35.4602 103.481 37.0241 102.954 37.4741C102.43 37.9272 101.861 38.1574 101.261 38.1574C100.625 38.1574 100.164 37.9324 99.8886 37.4861C99.615 37.0445 99.6731 35.4905 99.9117 34.5874C100.184 33.565 100.65 32.6912 101.132 32.2475C101.617 31.8007 102.173 31.5762 102.79 31.5762C103.413 31.5762 103.878 31.8253 104.179 32.3161C104.478 32.8042 104.422 33.6419 104.182 34.5529ZM106.133 28.5085C106.114 28.5734 105.625 30.4283 105.625 30.4283L105.572 30.3111C105.234 29.5681 104.795 29.0286 104.264 28.7063C103.735 28.3851 102.981 28.2218 102.031 28.2218C100.54 28.2218 99.1838 28.7283 97.9982 29.7298C96.8105 30.7296 95.8671 32.3349 95.3617 34.2489C94.9195 35.9217 94.8447 38.1564 95.2915 39.1678C95.9158 40.5925 97.059 41.3156 98.6899 41.3156C99.526 41.3156 100.368 41.1204 101.194 40.7353C101.718 40.4863 102.293 40.0855 102.897 39.5382L102.993 39.4524L102.973 39.5816C102.953 39.7088 102.537 42.1653 101.45 43.1898C100.625 43.9705 98.692 43.9762 97.0611 43.871L95.4836 43.7994C93.7679 43.7994 92.847 46.6259 92.5859 47.5776H98.7595C99.8379 47.5776 100.836 47.4792 101.725 47.2856C102.615 47.0931 103.397 46.7776 104.05 46.3475C104.706 45.9169 105.296 45.3455 105.807 44.6491C106.34 43.9255 106.949 41.921 107.118 41.2785C107.118 41.2785 110.455 28.6216 110.487 28.5091L106.133 28.5085Z" fill="#000002"/>
<path d="M83.7867 33.5488C84.0609 32.8058 84.3978 32.2366 84.7908 31.8572C85.4066 31.2487 86.1083 30.9421 86.8759 30.9421C87.5445 30.9421 88.0385 31.1493 88.344 31.5585C88.6454 31.9634 88.7218 32.641 88.5737 33.5719L88.5669 33.6101H83.7642L83.7867 33.5488ZM83.1018 36.2398H92.6418C92.6581 36.1802 92.7758 35.7375 92.7758 35.7375C93.0395 34.735 93.2472 33.3986 93.2472 32.6258C93.2472 32.1481 93.1986 31.7165 93.0965 31.3319C92.8339 30.3284 92.2604 29.5514 91.3882 29.0224C90.5133 28.4918 89.1796 28.2213 87.419 28.2213C85.2507 28.2213 83.3697 28.823 81.8283 30.0102C80.2874 31.1974 79.2482 32.7734 78.7417 34.6942C78.3854 36.0436 78.3054 37.6745 78.6533 38.6686C78.9976 39.6607 79.5841 40.3953 80.3904 40.8526C81.1983 41.3083 82.4331 41.5401 84.0593 41.5401C85.9382 41.5401 87.4692 41.2701 88.6083 40.7349C89.7081 40.2211 90.7729 39.3645 91.7749 38.2024H86.7969C86.6331 38.3233 86.4813 38.4196 86.3401 38.4907C85.8524 38.7267 85.3658 38.845 84.896 38.845C84.1436 38.845 83.5957 38.5661 83.2703 38.0167C83.1149 37.764 83.0369 37.4197 83.0369 36.9891C83.0369 36.7745 83.0579 36.5365 83.095 36.279L83.1018 36.2398Z" fill="#000002"/>
<path d="M59.1664 31.9012H61.7778C61.7935 31.8348 62.6443 28.618 62.672 28.5086H60.0611C60.0611 28.5086 61.1708 24.4499 61.2179 24.271C60.5503 24.5745 56.0081 26.2143 56.0003 26.1991L55.3939 28.5086H53.6426C53.6269 28.5735 52.7772 31.7914 52.75 31.9012H54.4992L53.2549 36.761C52.8955 38.1329 52.7657 39.1354 52.8703 39.7434C52.9713 40.3441 53.2591 40.7987 53.7263 41.0938C54.1983 41.3895 55.0302 41.5402 56.1986 41.5402C57.1456 41.5402 58.202 41.4224 59.3422 41.1995L60.2055 37.9696C60.2055 37.9618 60.2086 37.9497 60.2107 37.9466C59.5656 38.1329 58.8969 38.2715 58.5531 38.2715C58.145 38.2715 57.8907 38.1292 57.7981 37.8456C57.7798 37.7907 57.7704 37.7216 57.7704 37.6364C57.7704 37.437 57.8206 37.1513 57.9221 36.7704L59.1664 31.9012Z" fill="#000002"/>
<path d="M213.226 31.0462C213.226 30.3587 213.081 29.7988 212.79 29.376C212.266 28.61 211.345 28.2218 210.05 28.2218C209.09 28.2218 208.216 28.3992 207.456 28.7492C206.692 29.1003 205.865 29.6947 204.997 30.5104L204.881 30.6193C204.881 30.6193 205.408 28.6168 205.437 28.5091H201.112C201.093 28.5766 197.818 41.1414 197.789 41.2565H202.441C202.459 41.188 204.005 35.3314 204.005 35.3314C204.302 34.1992 204.773 32.9581 205.251 32.518C205.728 32.0775 206.268 31.8536 206.852 31.8536C207.387 31.8536 207.765 32.0215 207.976 32.3579C208.081 32.5275 208.132 32.7488 208.132 33.0287C208.132 33.3092 208.081 33.6467 207.976 34.0459C207.976 34.0459 206.146 41.1424 206.115 41.257H210.792C210.888 40.8944 212.94 32.9638 212.94 32.9638C213.13 32.2428 213.226 31.6019 213.226 31.0462Z" fill="#000002"/>
<path d="M162.606 24.236C162.586 24.3019 161.882 26.9793 161.852 27.0891H166.505C166.523 27.0227 167.228 24.3458 167.258 24.236H162.606Z" fill="#000002"/>
<path d="M192.432 34.6487C192.126 35.805 191.602 37.1016 191.018 37.6269C190.434 38.1548 189.786 38.4211 189.093 38.4211C188.4 38.4211 187.891 38.1464 187.575 37.6044C187.413 37.3281 187.331 36.9686 187.331 36.5359C187.331 36.1273 187.479 35.2101 187.623 34.6732C187.909 33.5802 188.358 32.754 188.955 32.2151C189.554 31.6762 190.212 31.4041 190.917 31.4041C191.584 31.4041 192.082 31.6757 192.398 32.2141C192.706 32.7483 192.717 33.5677 192.432 34.6487ZM191.709 28.2213C189.556 28.2213 187.663 28.8382 186.077 30.0526C184.494 31.2644 183.44 32.8299 182.947 34.7051C182.417 36.7107 182.659 38.7989 183.821 40.0358C184.771 41.0326 186.253 41.5391 188.223 41.5391C190.435 41.5391 192.356 40.9264 193.928 39.7214C195.496 38.5153 196.62 36.5014 197.122 34.6115C197.564 32.9356 197.43 31.5046 196.728 30.3603C195.852 28.9413 194.164 28.2213 191.709 28.2213Z" fill="#000002"/>
<path d="M175.895 34.632C175.611 35.7093 175.118 36.9451 174.581 37.4244C174.044 37.9058 173.461 38.1491 172.844 38.1491C172.259 38.1491 171.827 37.9037 171.558 37.4171C171.292 36.9389 171.37 35.7333 171.638 34.7146C171.926 33.6263 172.324 32.8404 172.823 32.38C173.325 31.9132 173.865 31.6767 174.429 31.6767C175.074 31.6767 175.55 31.9269 175.844 32.4166C176 32.6777 176.076 33.0089 176.076 33.4091C176.076 33.7628 176.017 34.172 175.895 34.632ZM178.643 24.2359C178.624 24.3029 177.141 29.7785 177.141 29.7785L177.084 29.6947C176.752 29.206 176.319 28.8351 175.792 28.5912C175.266 28.3459 174.625 28.2224 173.896 28.2224C172.396 28.2224 170.996 28.7692 169.737 29.846C168.476 30.928 167.566 32.5087 167.031 34.543C166.55 36.3638 166.506 38.3746 167.053 39.6424C167.595 40.9013 168.712 41.5407 170.374 41.5407C171.203 41.5407 172.016 41.3607 172.787 41.0075C173.364 40.7359 174.075 40.2075 174.896 39.4341L175.012 39.3237C175.012 39.3237 174.532 41.1467 174.504 41.256H178.858C178.988 40.7506 183.432 23.9131 183.348 24.2359H178.643Z" fill="#000002"/>
<path d="M138.699 24.236C138.683 24.3019 137.975 26.9793 137.945 27.0891H142.599C142.616 27.0227 143.323 24.3458 143.353 24.236H138.699Z" fill="#000002"/>
<path d="M134.203 41.2556H138.858C138.873 41.1871 142.147 28.6207 142.178 28.5082H137.522C137.505 28.5762 134.232 41.141 134.203 41.2556Z" fill="#000002"/>
<path d="M128.674 34.6487C128.37 35.805 127.839 37.1016 127.261 37.6269C126.678 38.1548 126.03 38.4211 125.335 38.4211C124.642 38.4211 124.132 38.1464 123.815 37.6044C123.503 37.066 123.57 35.7835 123.864 34.6727C124.153 33.5771 124.601 32.7504 125.196 32.2146C125.797 31.6757 126.456 31.4036 127.157 31.4036C127.823 31.4036 128.321 31.6751 128.636 32.2136C128.946 32.7483 128.959 33.5666 128.674 34.6487ZM127.951 28.2213C125.799 28.2213 123.905 28.8382 122.319 30.0526C120.735 31.2644 119.681 32.8299 119.189 34.7051C118.657 36.7117 118.905 38.801 120.066 40.0358C121.013 41.0326 122.493 41.5391 124.465 41.5391C126.681 41.5391 128.596 40.9264 130.168 39.7214C131.739 38.5169 132.864 36.5014 133.364 34.6115C133.806 32.9351 133.675 31.5046 132.969 30.3603C132.095 28.9413 130.407 28.2213 127.951 28.2213Z" fill="#000002"/>
<path d="M158.109 41.2556H162.765C162.783 41.1871 166.056 28.6207 166.084 28.5082H161.432C161.413 28.5762 158.138 41.141 158.109 41.2556Z" fill="#000002"/>
<path d="M151.99 34.632C151.706 35.7093 151.213 36.9436 150.678 37.4244C150.14 37.9058 149.555 38.1491 148.939 38.1491C148.355 38.1491 147.922 37.9037 147.651 37.4171C147.387 36.9389 147.465 35.7333 147.732 34.7146C148.02 33.6294 148.417 32.8415 148.917 32.38C149.419 31.9132 149.96 31.6767 150.52 31.6767C151.166 31.6767 151.645 31.9269 151.939 32.4166C152.232 32.9069 152.249 33.6525 151.99 34.632ZM154.737 24.2359C154.718 24.3029 153.235 29.7785 153.235 29.7785L153.177 29.6947C152.846 29.205 152.412 28.834 151.885 28.5912C151.358 28.3459 150.721 28.2224 149.988 28.2224C148.491 28.2224 147.093 28.7692 145.832 29.846C144.573 30.9259 143.662 32.5066 143.122 34.543C142.643 36.3643 142.601 38.3746 143.146 39.6424C143.688 40.9013 144.806 41.5407 146.467 41.5407C147.298 41.5407 148.109 41.3607 148.878 41.0075C149.456 40.7359 150.169 40.2085 150.991 39.4341L151.107 39.3237C151.107 39.3237 150.626 41.1467 150.597 41.256H154.951C155.086 40.7506 159.525 23.9131 159.44 24.2359H154.737Z" fill="#000002"/>
<path d="M209.681 44.0941C209.518 43.8534 209.236 43.7325 208.833 43.7325C208.558 43.7325 208.313 43.7775 208.105 43.866C207.894 43.9549 207.644 44.1223 207.351 44.3677C207.293 44.1584 207.193 43.9994 207.044 43.8931C206.899 43.7859 206.675 43.7325 206.374 43.7325C206.095 43.7325 205.842 43.7817 205.617 43.8775C205.393 43.9758 205.155 44.138 204.899 44.3672L205.046 43.8199H203.695L202.698 47.5929H204.149L204.659 45.6648C204.734 45.3781 204.841 45.1719 204.982 45.0453C205.122 44.9208 205.274 44.8575 205.443 44.8575C205.544 44.8575 205.623 44.8873 205.683 44.9454C205.745 45.004 205.777 45.0799 205.785 45.173C205.787 45.2347 205.767 45.3477 205.724 45.5126L205.174 47.5934H206.623L207.138 45.6439C207.21 45.3718 207.314 45.173 207.45 45.05C207.587 44.9271 207.741 44.8653 207.911 44.8653C208.057 44.8653 208.158 44.9323 208.22 45.0615C208.264 45.1447 208.264 45.2719 208.219 45.4419L207.653 47.594H209.1L209.728 45.2248C209.862 44.711 209.849 44.3342 209.681 44.0941ZM201.04 45.6999C200.948 46.0499 200.812 46.3063 200.638 46.4638C200.46 46.6239 200.269 46.7019 200.06 46.7019C199.853 46.7019 199.703 46.6213 199.61 46.4612C199.516 46.3005 199.515 46.0494 199.603 45.7119C199.689 45.3807 199.823 45.1348 200.003 44.9721C200.184 44.8109 200.382 44.7282 200.591 44.7282C200.792 44.7282 200.936 44.8093 201.031 44.9689C201.122 45.129 201.128 45.3718 201.04 45.6999ZM200.833 43.7325C200.17 43.7325 199.598 43.9198 199.11 44.2934C198.623 44.6665 198.304 45.1411 198.151 45.7182C197.986 46.3372 198.086 46.8363 198.444 47.2177C198.738 47.5259 199.185 47.6808 199.795 47.6808C200.475 47.6808 201.057 47.493 201.54 47.1241C202.023 46.7526 202.34 46.2765 202.492 45.6967C202.63 45.1798 202.589 44.7429 202.372 44.3897C202.102 43.9502 201.588 43.7325 200.833 43.7325ZM195.157 44.9815C195.35 44.8114 195.564 44.7251 195.805 44.7251C195.998 44.7251 196.138 44.7659 196.229 44.8465C196.279 44.8941 196.314 44.9558 196.336 45.0286H197.773C197.755 44.6042 197.612 44.2835 197.347 44.0632C197.082 43.8424 196.642 43.7331 196.026 43.7331C195.585 43.7331 195.209 43.7911 194.895 43.9068C194.698 43.9795 194.496 44.0936 194.286 44.2448C194.08 44.3934 193.904 44.5639 193.755 44.7534C193.554 45.0103 193.403 45.3347 193.3 45.7208C193.203 46.0954 193.179 46.3952 193.228 46.6181C193.277 46.8442 193.377 47.0399 193.524 47.2078C193.671 47.3732 193.87 47.4935 194.116 47.5688C194.363 47.6442 194.686 47.6813 195.088 47.6813C195.503 47.6813 195.861 47.6222 196.159 47.5071C196.458 47.3899 196.724 47.2266 196.952 47.0184C197.178 46.8075 197.365 46.5606 197.518 46.2744H196.073C195.983 46.3931 195.887 46.4962 195.778 46.5648C195.621 46.6626 195.451 46.7107 195.261 46.7107C195.032 46.7107 194.868 46.6302 194.762 46.4695C194.657 46.3094 194.647 46.0729 194.728 45.7642C194.818 45.4147 194.962 45.1547 195.157 44.9815ZM191.036 46.0049C190.598 46.0049 190.242 46.3607 190.242 46.7981C190.242 47.2376 190.597 47.5929 191.036 47.5929C191.473 47.5929 191.829 47.2376 191.829 46.7981C191.829 46.3612 191.473 46.0049 191.036 46.0049Z" fill="#000002"/>
</svg>
