<svg width="130" height="65" viewBox="0 0 130 65" fill="none" xmlns="http://www.w3.org/2000/svg">
<g opacity="0.9">
<path d="M28.3482 55C26.7322 55 25.4219 53.6899 25.4219 52.0739V29.3121C25.4219 27.6961 26.732 26.3859 28.3482 26.3859C29.9642 26.3859 31.2742 27.6959 31.2742 29.3121V52.0741C31.2742 53.6899 29.9642 55 28.3482 55Z" fill="#26AAE1"/>
<path d="M61.9573 55C60.3411 55 59.0312 53.6899 59.0312 52.0739V29.3121C59.0312 27.6961 60.3411 26.3859 61.9573 26.3859C63.5733 26.3859 64.8834 27.6959 64.8834 29.3121V52.0741C64.8836 53.6899 63.5733 55 61.9573 55Z" fill="#26AAE1"/>
<path d="M21.2963 26.6141H6.77062C5.24045 26.6141 4 27.8546 4 29.3848C4 30.9149 5.24045 32.1554 6.77062 32.1554H11.1732V52.1388C11.1732 53.6689 12.4137 54.9094 13.9439 54.9094H14.2102C15.7404 54.9094 16.9809 53.6688 16.9809 52.1388V32.1554H21.2963C22.8265 32.1554 24.0669 30.9149 24.0669 29.3848C24.0671 27.8546 22.8267 26.6141 21.2963 26.6141Z" fill="#26AAE1"/>
<path d="M120.261 52.902C120.646 53.4089 121.015 53.9318 121.551 54.2964C122.543 54.9709 123.601 55.125 124.712 54.6328C125.837 54.1349 126.266 53.152 126.27 52.0273C126.296 44.4721 126.284 36.9167 126.283 29.3618C126.283 29.203 126.279 29.042 126.253 28.8861C125.996 27.3307 124.95 26.4326 123.38 26.4127C121.773 26.3925 120.754 27.1997 120.445 28.7802C120.362 29.204 120.355 29.6474 120.355 30.0818C120.349 34.7643 120.351 39.4468 120.351 44.4943C119.529 43.4029 118.933 42.6152 118.34 41.8249C114.833 37.1515 111.336 32.4717 107.816 27.8081C106.914 26.6116 105.489 26.1489 104.236 26.5537C102.948 26.9698 102.344 27.8519 102.341 29.5124C102.326 36.9879 102.32 44.4636 102.345 51.9393C102.351 53.8876 103.438 54.9236 105.289 54.9096C107.128 54.8955 108.15 53.8234 108.154 51.8675V36.9675L120.261 52.902Z" fill="#26AAE1"/>
<path d="M40.7913 42.3507C40.7913 45.5241 40.7961 48.6249 40.7895 51.7256C40.7851 53.7866 39.7042 54.9219 37.7799 54.9094C35.8933 54.897 34.8637 53.8213 34.8602 51.7742C34.8482 44.4177 34.8494 37.0612 34.8594 29.7051C34.8623 27.6472 35.9801 26.4239 37.8038 26.4131C39.758 26.4015 40.7864 27.5405 40.7903 29.7344C40.7945 32.3145 40.7913 34.8943 40.7913 37.825C41.8107 36.7534 42.6385 35.8902 43.4587 35.0195C45.8584 32.4725 48.248 29.9159 50.6562 27.3768C51.5647 26.4187 52.6653 26.1417 53.9172 26.6249C55.0292 27.0541 55.6335 27.8848 55.7124 29.0628C55.7914 30.2475 55.082 31.0829 54.3193 31.846C52.295 33.8713 50.2516 35.8779 48.1973 37.8731C46.3043 39.7117 46.2935 39.7011 48.1553 41.644C50.7143 44.3143 53.2735 46.9844 55.8325 49.6548C56.4156 50.2633 56.9486 50.907 57.0456 51.7856C57.1725 52.9329 56.921 53.9249 55.8239 54.5342C54.7313 55.1412 53.1516 55.0909 52.2452 54.2383C50.9442 53.0141 49.7306 51.6943 48.5108 50.3868C46.1782 47.8862 43.8699 45.3629 41.5426 42.8573C41.3657 42.6673 41.2426 42.3831 40.7913 42.3507Z" fill="#26AAE1"/>
<path d="M89.0456 44.7757C90.6353 40.5117 92.1117 36.5537 93.5867 32.5953C94.0849 31.2582 94.5563 29.9107 95.0831 28.585C95.8244 26.7196 97.2808 25.9909 98.9441 26.606C100.654 27.2386 101.335 28.7962 100.591 30.7096C97.7144 38.0981 94.7986 45.4714 91.8879 52.8466C91.3801 54.1338 90.5238 54.935 89.0193 54.9246C87.5123 54.9142 86.6858 54.0871 86.1797 52.8021C83.2887 45.4622 80.3917 38.1246 77.5233 30.7758C76.7741 28.8564 77.4039 27.2803 79.0762 26.6257C80.8055 25.9486 82.3009 26.7219 83.0607 28.7435C85.0256 33.9713 86.9688 39.2074 89.0456 44.7757Z" fill="#26AAE1"/>
<path d="M75.0365 52.0403C75.0365 53.6749 73.7114 55 72.0768 55C70.4423 55 69.1172 53.6749 69.1172 52.0403C69.1172 50.4058 70.4423 49.0807 72.0768 49.0807C73.7114 49.0807 75.0365 50.4058 75.0365 52.0403Z" fill="#26AAE1"/>
<path d="M28.2026 22.6547C25.253 22.6547 22.8616 20.2635 22.8616 17.3137C22.8616 16.828 22.9275 16.3581 23.0491 15.911H33.3561C33.4775 16.3581 33.5436 16.828 33.5436 17.3137C33.5438 20.2635 31.1524 22.6547 28.2026 22.6547ZM28.2026 10C24.3973 10 21.3125 13.0848 21.3125 16.8901C21.3125 20.6954 24.3973 23.7802 28.2026 23.7802C32.008 23.7802 35.0929 20.6954 35.0929 16.8901C35.0929 13.0848 32.008 10 28.2026 10Z" fill="#26AAE1"/>
<path d="M62.0073 22.6547C59.0575 22.6547 56.6663 20.2635 56.6663 17.3137C56.6663 16.828 56.7322 16.3581 56.8537 15.911H67.1606C67.2821 16.3581 67.3481 16.828 67.3481 17.3137C67.3481 20.2635 64.9571 22.6547 62.0073 22.6547ZM62.0073 10C58.202 10 55.1172 13.0848 55.1172 16.8901C55.1172 20.6954 58.202 23.7802 62.0073 23.7802C65.8125 23.7802 68.8972 20.6954 68.8972 16.8901C68.8974 13.0848 65.8125 10 62.0073 10Z" fill="#26AAE1"/>
</g>
</svg>
