<svg width="170" height="65" viewBox="0 0 170 65" fill="none" xmlns="http://www.w3.org/2000/svg">
<path d="M37.5137 26.244C40.4193 28.32 43.9787 29.5414 47.8232 29.5414V22.1474C47.0956 22.1475 46.3699 22.0717 45.6581 21.921V27.7411C41.814 27.7411 38.255 26.5197 35.3486 24.4439V39.5329C35.3486 47.0812 29.2264 53.1998 21.6747 53.1998C18.857 53.1998 16.2381 52.3484 14.0625 50.8882C16.5455 53.4258 20.0083 55 23.8393 55C31.3915 55 37.514 48.8813 37.514 41.3327V26.244H37.5137ZM40.1845 18.7844C38.6996 17.1629 37.7246 15.0675 37.5137 12.751V11.7999H35.462C35.9784 14.7443 37.7399 17.2598 40.1845 18.7844ZM18.8389 45.0959C18.0093 44.0086 17.561 42.6786 17.563 41.3111C17.563 37.8588 20.3632 35.0596 23.818 35.0596C24.4619 35.0595 25.1018 35.158 25.7154 35.3526V27.7933C24.9984 27.6951 24.2747 27.6534 23.5513 27.6687V33.5524C22.9373 33.3579 22.297 33.259 21.6529 33.2596C18.1982 33.2596 15.3981 36.0585 15.3981 39.5113C15.3981 41.9526 16.7977 44.0662 18.8389 45.0959Z" fill="#FF004F"/>
<path d="M35.3474 24.4437C38.2538 26.5195 41.8128 27.741 45.6569 27.741V21.9208C43.5111 21.464 41.6116 20.3433 40.1833 18.7844C37.7386 17.2596 35.9772 14.7441 35.4608 11.7999H30.0715V41.3324C30.0593 44.7753 27.2638 47.563 23.8165 47.563C21.785 47.563 19.9803 46.5952 18.8373 45.0959C16.7962 44.0662 15.3966 41.9525 15.3966 39.5114C15.3966 36.059 18.1967 33.2598 21.6514 33.2598C22.3134 33.2598 22.9513 33.3628 23.5498 33.5526V27.6688C16.1308 27.822 10.1641 33.8809 10.1641 41.3325C10.1641 45.0523 11.6499 48.4245 14.0614 50.8884C16.237 52.3484 18.856 53.2 21.6737 53.2C29.2255 53.2 35.3476 47.081 35.3476 39.5329V24.4437H35.3474Z" fill="black"/>
<path d="M45.6577 21.9209V20.3472C43.7228 20.3501 41.8258 19.8085 40.1842 18.7843C41.6374 20.3745 43.551 21.471 45.6577 21.9209ZM35.4616 11.8C35.4123 11.5186 35.3745 11.2353 35.3483 10.951V10H27.9071V39.5328C27.8953 42.9752 25.0999 45.7629 21.6523 45.7629C20.6401 45.7629 19.6844 45.5228 18.8381 45.0961C19.9811 46.5952 21.7859 47.5629 23.8173 47.5629C27.2644 47.5629 30.0603 44.7755 30.0724 41.3326V11.8H35.4616ZM23.5509 27.6689V25.9935C22.9292 25.9086 22.3023 25.866 21.6747 25.8663C14.1222 25.8661 8 31.9851 8 39.5328C8 44.2647 10.4061 48.435 14.0624 50.8881C11.6509 48.4244 10.1651 45.0521 10.1651 41.3324C10.1651 33.881 16.1316 27.8221 23.5509 27.6689Z" fill="#00F2EA"/>
<path d="M131.88 47.0124C137.284 47.0124 141.665 42.6671 141.665 37.3075C141.665 31.9481 137.284 27.6021 131.88 27.6021H130.406C135.81 27.6021 140.191 31.9479 140.191 37.3075C140.191 42.6671 135.81 47.0124 130.406 47.0124H131.88Z" fill="#FF004F"/>
<path d="M130.267 27.6021H128.793C123.389 27.6021 119.008 31.9479 119.008 37.3075C119.008 42.6671 123.389 47.0124 128.793 47.0124H130.267C124.862 47.0124 120.482 42.6671 120.482 37.3075C120.482 31.9481 124.862 27.6021 130.267 27.6021Z" fill="#00F2EA"/>
<path d="M55.8828 23.2156V28.1349H61.645V46.8796H67.4096V28.2677H72.1001L73.7084 23.2157L55.8828 23.2156ZM103.061 23.2156V28.1349H108.823V46.8796H114.587V28.2677H119.278L120.886 23.2157L103.061 23.2156ZM74.7816 26.0072C74.7816 24.4657 76.0397 23.2156 77.5939 23.2156C79.1496 23.2156 80.409 24.4657 80.409 26.0072C80.409 27.5488 79.1504 28.799 77.5939 28.799C76.0397 28.7982 74.7816 27.5488 74.7816 26.0072ZM74.7816 30.7937H80.409V46.8796H74.7816V30.7937ZM82.822 23.2156V46.8794H88.4515V40.7646L90.194 39.1679L95.6885 47.0122H101.719L93.811 35.5792L100.915 28.6654H94.0795L88.4515 34.2487V23.2156H82.822ZM143.536 23.2156V46.8794H149.166V40.7646L150.908 39.1679L156.404 47.0122H162.435L154.527 35.5792L161.63 28.6654H154.795L149.166 34.2487V23.2156H143.536Z" fill="black"/>
<path d="M130.402 47.0124C135.806 47.0124 140.187 42.6671 140.187 37.3075C140.187 31.9481 135.806 27.6021 130.402 27.6021H130.269C124.865 27.6021 120.484 31.9479 120.484 37.3075C120.484 42.6671 124.865 47.0124 130.269 47.0124H130.402ZM125.577 37.3075C125.577 34.7005 127.709 32.5887 130.337 32.5887C132.963 32.5887 135.094 34.7005 135.094 37.3075C135.094 39.9146 132.963 42.0276 130.337 42.0276C127.709 42.0271 125.577 39.9146 125.577 37.3075Z" fill="black"/>
</svg>
