<svg width="125" height="65" viewBox="0 0 125 65" fill="none" xmlns="http://www.w3.org/2000/svg">
<path fill-rule="evenodd" clip-rule="evenodd" d="M63.3594 24.202V22.1733H69.4361V50.6995H65.9596C64.5285 50.6995 63.3668 49.5438 63.3595 48.1147C63.3585 48.1154 63.3604 48.114 63.3595 48.1147C60.912 49.9045 57.8836 50.9691 54.6155 50.9691C46.431 50.9691 39.7949 44.3374 39.7949 36.1584C39.7949 27.9793 46.431 21.3476 54.6155 21.3476C57.8836 21.3476 60.9119 22.4122 63.3594 24.202C63.3604 24.2027 63.3585 24.2013 63.3594 24.202ZM38.2203 13V13.9249C38.2203 15.6498 37.9898 17.0582 36.8688 18.7104L36.7332 18.8651C36.4885 19.1425 35.9141 19.7943 35.6408 20.148L16.1328 44.6332H38.2203V48.0995C38.2203 49.5356 37.055 50.6994 35.6179 50.6994H7V49.065C7 47.0633 7.49735 46.1706 8.12599 45.24L28.9219 19.4998H7.86697V13H38.2203ZM76.8064 50.6995C75.6112 50.6995 74.6393 49.7283 74.6393 48.5346V13.0001H81.1441V50.6995H76.8064ZM100.376 21.169C108.618 21.169 115.296 27.8506 115.296 36.0796C115.296 44.3157 108.618 50.9973 100.376 50.9973C92.1344 50.9973 85.4555 44.3157 85.4555 36.0796C85.4555 27.8506 92.1344 21.169 100.376 21.169ZM54.6155 44.8723C59.432 44.8723 63.3352 40.9717 63.3352 36.1584C63.3352 31.3522 59.432 27.4516 54.6155 27.4516C49.799 27.4516 45.8958 31.3522 45.8958 36.1584C45.8958 40.9717 49.799 44.8723 54.6155 44.8723ZM100.376 44.8576C105.221 44.8576 109.153 40.9285 109.153 36.0796C109.153 31.2377 105.221 27.3093 100.376 27.3093C95.5238 27.3093 91.5993 31.2377 91.5993 36.0796C91.5993 40.9285 95.5238 44.8576 100.376 44.8576Z" fill="#0068FF"/>
</svg>
